G04*
G04 #@! TF.GenerationSoftware,Altium Limited,Altium Designer,25.4.2 (15)*
G04*
G04 Layer_Physical_Order=1*
G04 Layer_Color=255*
%FSLAX44Y44*%
%MOMM*%
G71*
G04*
G04 #@! TF.SameCoordinates,5AC55BFC-FCD3-40F5-B288-2FFBB6E5E952*
G04*
G04*
G04 #@! TF.FilePolarity,Positive*
G04*
G01*
G75*
%ADD18R,0.5500X0.5700*%
%ADD19O,0.6000X1.6000*%
%ADD20R,1.3500X1.1500*%
%ADD21R,1.3000X1.4000*%
%ADD22R,0.9000X1.2000*%
%ADD23R,1.2000X0.9000*%
G04:AMPARAMS|DCode=24|XSize=1.32mm|YSize=0.6mm|CornerRadius=0.075mm|HoleSize=0mm|Usage=FLASHONLY|Rotation=90.000|XOffset=0mm|YOffset=0mm|HoleType=Round|Shape=RoundedRectangle|*
%AMROUNDEDRECTD24*
21,1,1.3200,0.4500,0,0,90.0*
21,1,1.1700,0.6000,0,0,90.0*
1,1,0.1500,0.2250,0.5850*
1,1,0.1500,0.2250,-0.5850*
1,1,0.1500,-0.2250,-0.5850*
1,1,0.1500,-0.2250,0.5850*
%
%ADD24ROUNDEDRECTD24*%
%ADD25R,1.4000X1.3000*%
%ADD26R,1.1500X1.3500*%
%ADD27R,1.5000X0.9000*%
%ADD28R,0.3000X1.2000*%
%ADD29R,0.2000X1.0000*%
%ADD30R,1.2000X1.2000*%
G04:AMPARAMS|DCode=31|XSize=1.2mm|YSize=1.82mm|CornerRadius=0.15mm|HoleSize=0mm|Usage=FLASHONLY|Rotation=0.000|XOffset=0mm|YOffset=0mm|HoleType=Round|Shape=RoundedRectangle|*
%AMROUNDEDRECTD31*
21,1,1.2000,1.5200,0,0,0.0*
21,1,0.9000,1.8200,0,0,0.0*
1,1,0.3000,0.4500,-0.7600*
1,1,0.3000,-0.4500,-0.7600*
1,1,0.3000,-0.4500,0.7600*
1,1,0.3000,0.4500,0.7600*
%
%ADD31ROUNDEDRECTD31*%
G04:AMPARAMS|DCode=32|XSize=0.84mm|YSize=0.26mm|CornerRadius=0.065mm|HoleSize=0mm|Usage=FLASHONLY|Rotation=180.000|XOffset=0mm|YOffset=0mm|HoleType=Round|Shape=RoundedRectangle|*
%AMROUNDEDRECTD32*
21,1,0.8400,0.1300,0,0,180.0*
21,1,0.7100,0.2600,0,0,180.0*
1,1,0.1300,-0.3550,0.0650*
1,1,0.1300,0.3550,0.0650*
1,1,0.1300,0.3550,-0.0650*
1,1,0.1300,-0.3550,-0.0650*
%
%ADD32ROUNDEDRECTD32*%
G04:AMPARAMS|DCode=33|XSize=0.26mm|YSize=0.84mm|CornerRadius=0.065mm|HoleSize=0mm|Usage=FLASHONLY|Rotation=180.000|XOffset=0mm|YOffset=0mm|HoleType=Round|Shape=RoundedRectangle|*
%AMROUNDEDRECTD33*
21,1,0.2600,0.7100,0,0,180.0*
21,1,0.1300,0.8400,0,0,180.0*
1,1,0.1300,-0.0650,0.3550*
1,1,0.1300,0.0650,0.3550*
1,1,0.1300,0.0650,-0.3550*
1,1,0.1300,-0.0650,-0.3550*
%
%ADD33ROUNDEDRECTD33*%
G04:AMPARAMS|DCode=34|XSize=0.49mm|YSize=0.45mm|CornerRadius=0.0563mm|HoleSize=0mm|Usage=FLASHONLY|Rotation=90.000|XOffset=0mm|YOffset=0mm|HoleType=Round|Shape=RoundedRectangle|*
%AMROUNDEDRECTD34*
21,1,0.4900,0.3375,0,0,90.0*
21,1,0.3775,0.4500,0,0,90.0*
1,1,0.1125,0.1688,0.1888*
1,1,0.1125,0.1688,-0.1888*
1,1,0.1125,-0.1688,-0.1888*
1,1,0.1125,-0.1688,0.1888*
%
%ADD34ROUNDEDRECTD34*%
%ADD35R,0.3500X0.3500*%
%ADD36R,0.9000X0.3000*%
%ADD37R,0.3000X0.9000*%
%ADD38R,1.8000X1.8000*%
G04:AMPARAMS|DCode=39|XSize=1.21mm|YSize=0.59mm|CornerRadius=0.0738mm|HoleSize=0mm|Usage=FLASHONLY|Rotation=270.000|XOffset=0mm|YOffset=0mm|HoleType=Round|Shape=RoundedRectangle|*
%AMROUNDEDRECTD39*
21,1,1.2100,0.4425,0,0,270.0*
21,1,1.0625,0.5900,0,0,270.0*
1,1,0.1475,-0.2213,-0.5313*
1,1,0.1475,-0.2213,0.5313*
1,1,0.1475,0.2213,0.5313*
1,1,0.1475,0.2213,-0.5313*
%
%ADD39ROUNDEDRECTD39*%
%ADD40R,1.6000X3.0000*%
%ADD41R,1.0000X5.5000*%
G04:AMPARAMS|DCode=42|XSize=1.18mm|YSize=2.81mm|CornerRadius=0.1475mm|HoleSize=0mm|Usage=FLASHONLY|Rotation=0.000|XOffset=0mm|YOffset=0mm|HoleType=Round|Shape=RoundedRectangle|*
%AMROUNDEDRECTD42*
21,1,1.1800,2.5150,0,0,0.0*
21,1,0.8850,2.8100,0,0,0.0*
1,1,0.2950,0.4425,-1.2575*
1,1,0.2950,-0.4425,-1.2575*
1,1,0.2950,-0.4425,1.2575*
1,1,0.2950,0.4425,1.2575*
%
%ADD42ROUNDEDRECTD42*%
%ADD43R,0.9500X2.1500*%
%ADD44R,3.2500X2.1500*%
%ADD45R,1.8200X1.1600*%
%ADD46R,1.1600X1.8200*%
%ADD47R,1.1000X0.8000*%
%ADD48R,1.1000X1.0000*%
%ADD49R,0.7000X0.7000*%
%ADD50R,1.5000X2.8000*%
%ADD51R,1.0000X1.5000*%
%ADD52R,0.7000X1.5000*%
%ADD53R,0.3048X0.8763*%
%ADD104C,0.3000*%
%ADD105R,2.7000X2.7000*%
%ADD106C,1.2000*%
%ADD107C,0.3810*%
%ADD108C,0.8000*%
%ADD109C,0.2540*%
%ADD110C,1.0000*%
%ADD111C,0.5000*%
%ADD112C,3.2000*%
%ADD113O,1.0500X2.1000*%
%ADD114C,0.6500*%
%ADD115C,1.5080*%
%ADD116R,1.5080X1.5080*%
%ADD117C,1.3000*%
%ADD118C,1.1628*%
%ADD119R,1.1628X1.1628*%
%ADD120R,1.5080X1.5080*%
%ADD121C,3.0000*%
%ADD122C,0.4000*%
%ADD123C,1.1500*%
%ADD124C,1.6500*%
%ADD125C,1.2080*%
%ADD126C,0.6096*%
%ADD127C,0.6000*%
%ADD128C,0.8000*%
G36*
X627931Y265091D02*
Y261500D01*
X628203Y260134D01*
X628658Y259454D01*
Y257950D01*
X628825Y257111D01*
X628875Y257036D01*
Y251292D01*
X628098Y250652D01*
X618579Y250405D01*
X618516Y250447D01*
X617150Y250719D01*
X612625D01*
Y265250D01*
X627772D01*
X627931Y265091D01*
D02*
G37*
G36*
X618739Y238734D02*
X621250Y237393D01*
Y227250D01*
X621500D01*
Y227150D01*
X625758D01*
X626171Y227036D01*
X627790Y224376D01*
X627787Y224150D01*
X627519Y222800D01*
X627727Y221750D01*
X626674Y219512D01*
X626179Y218750D01*
X612000D01*
Y238581D01*
X617150D01*
X618250Y238800D01*
X618739Y238734D01*
D02*
G37*
G36*
X661000Y218250D02*
X647077D01*
X646584Y218430D01*
X645161Y221250D01*
X645178Y221276D01*
X645481Y222800D01*
X645213Y224150D01*
X645210Y224376D01*
X646834Y227045D01*
X647211Y227150D01*
X651500D01*
Y233250D01*
X661000D01*
Y218250D01*
D02*
G37*
G36*
X526125Y210250D02*
X497375D01*
Y243000D01*
X526125D01*
Y210250D01*
D02*
G37*
G36*
X633750Y409000D02*
X641250D01*
Y364750D01*
X552250D01*
Y453250D01*
X555500D01*
Y452250D01*
X573500D01*
Y453250D01*
X633750D01*
Y409000D01*
D02*
G37*
G36*
X674000Y465000D02*
X607000D01*
Y510000D01*
X674000D01*
Y465000D01*
D02*
G37*
G36*
X734000Y324500D02*
X692500D01*
Y370250D01*
X734000D01*
Y324500D01*
D02*
G37*
G36*
X764500Y361966D02*
X764374Y361840D01*
X763678Y360159D01*
Y358341D01*
X764374Y356660D01*
X764500Y356534D01*
Y325098D01*
X755702D01*
Y324500D01*
X736039D01*
Y370250D01*
X764500D01*
Y361966D01*
D02*
G37*
D18*
X909500Y223200D02*
D03*
X884000D02*
D03*
X909500Y234800D02*
D03*
X884000D02*
D03*
X968250Y223200D02*
D03*
X942750D02*
D03*
X968250Y234800D02*
D03*
X942750D02*
D03*
D19*
X980950Y586000D02*
D03*
X993650D02*
D03*
X1006350D02*
D03*
X1019050D02*
D03*
Y514000D02*
D03*
X1006350D02*
D03*
X993650D02*
D03*
X980950D02*
D03*
D20*
X1044000Y511250D02*
D03*
Y528750D02*
D03*
X722000Y251000D02*
D03*
Y268500D02*
D03*
X722000Y303750D02*
D03*
Y286250D02*
D03*
X1080000Y503750D02*
D03*
Y486250D02*
D03*
D21*
X1023000Y491000D02*
D03*
X1007000D02*
D03*
X889000Y257000D02*
D03*
X905000D02*
D03*
X835500Y383500D02*
D03*
X819500D02*
D03*
X763000Y714000D02*
D03*
X747000D02*
D03*
X850000Y329000D02*
D03*
X834000D02*
D03*
X890000Y537000D02*
D03*
X874000D02*
D03*
X650000Y375000D02*
D03*
X634000D02*
D03*
X850000Y633250D02*
D03*
X866000D02*
D03*
X1172000Y512000D02*
D03*
X1156000D02*
D03*
X896852Y613219D02*
D03*
X912852D02*
D03*
D22*
X941750Y280250D02*
D03*
X920750D02*
D03*
X921000Y300250D02*
D03*
X942000D02*
D03*
X825250Y362000D02*
D03*
X846250D02*
D03*
X702500Y255750D02*
D03*
X681500D02*
D03*
X1226500Y488000D02*
D03*
X1205500D02*
D03*
X581250Y290250D02*
D03*
X602250D02*
D03*
X788250Y467250D02*
D03*
X767250D02*
D03*
X946500Y654000D02*
D03*
X967500D02*
D03*
X892750Y558000D02*
D03*
X871750D02*
D03*
D23*
X863250Y224250D02*
D03*
Y245250D02*
D03*
X841500Y448250D02*
D03*
Y427250D02*
D03*
X733000Y418750D02*
D03*
Y439750D02*
D03*
X699000Y418750D02*
D03*
Y439750D02*
D03*
X655250Y283500D02*
D03*
Y304500D02*
D03*
X687250Y283500D02*
D03*
Y304500D02*
D03*
X623250Y282500D02*
D03*
Y303500D02*
D03*
X929000Y572250D02*
D03*
Y593250D02*
D03*
X540000Y463250D02*
D03*
Y442250D02*
D03*
X840500Y574250D02*
D03*
Y595250D02*
D03*
X860500Y595500D02*
D03*
Y574500D02*
D03*
D24*
X966750Y300250D02*
D03*
X976250Y280250D02*
D03*
X957250D02*
D03*
X895250Y300000D02*
D03*
X904750Y280000D02*
D03*
X885750D02*
D03*
D25*
X990750Y223250D02*
D03*
Y239250D02*
D03*
X819750Y428000D02*
D03*
Y444000D02*
D03*
X692250Y234500D02*
D03*
Y218500D02*
D03*
X790500Y611750D02*
D03*
Y595750D02*
D03*
X564500Y460750D02*
D03*
Y444750D02*
D03*
X1077000Y685000D02*
D03*
Y669000D02*
D03*
X908750Y590500D02*
D03*
Y574500D02*
D03*
D26*
X583250Y257000D02*
D03*
X600750D02*
D03*
X812000Y612250D02*
D03*
X829500D02*
D03*
X781250Y758000D02*
D03*
X798750D02*
D03*
X781250Y737000D02*
D03*
X798750D02*
D03*
X866750Y612500D02*
D03*
X849250D02*
D03*
X598500Y236000D02*
D03*
X581000D02*
D03*
X1067750Y635000D02*
D03*
X1050250D02*
D03*
X1050500Y614000D02*
D03*
X1068000D02*
D03*
D27*
X1273900Y624000D02*
D03*
Y639000D02*
D03*
X1098900Y699000D02*
D03*
Y684000D02*
D03*
Y669000D02*
D03*
Y654000D02*
D03*
Y639000D02*
D03*
Y624000D02*
D03*
Y609000D02*
D03*
Y594000D02*
D03*
Y579000D02*
D03*
X1273900D02*
D03*
Y594000D02*
D03*
Y609000D02*
D03*
Y654000D02*
D03*
Y669000D02*
D03*
Y684000D02*
D03*
Y699000D02*
D03*
D28*
X760250Y316050D02*
D03*
X765250D02*
D03*
X770250D02*
D03*
X775250D02*
D03*
X780250D02*
D03*
X785250D02*
D03*
X790250D02*
D03*
X795250D02*
D03*
X800250D02*
D03*
X805250D02*
D03*
X810250D02*
D03*
X815250D02*
D03*
D29*
X787750Y270250D02*
D03*
Y239250D02*
D03*
D30*
X733000Y462250D02*
D03*
Y483250D02*
D03*
X699250Y462000D02*
D03*
Y483000D02*
D03*
X619750Y354500D02*
D03*
Y333500D02*
D03*
X651750Y334500D02*
D03*
Y355500D02*
D03*
X682750Y354500D02*
D03*
Y333500D02*
D03*
X539500Y402500D02*
D03*
Y423500D02*
D03*
D31*
X818700Y406250D02*
D03*
X848800D02*
D03*
D32*
X655850Y232150D02*
D03*
Y237150D02*
D03*
Y242150D02*
D03*
Y247150D02*
D03*
Y252150D02*
D03*
X617150D02*
D03*
Y247150D02*
D03*
Y242150D02*
D03*
Y237150D02*
D03*
Y232150D02*
D03*
D33*
X646500Y261500D02*
D03*
X641500D02*
D03*
X636500D02*
D03*
X631500D02*
D03*
X626500D02*
D03*
Y222800D02*
D03*
X631500D02*
D03*
X636500D02*
D03*
X641500D02*
D03*
X646500D02*
D03*
D34*
X759250Y751700D02*
D03*
X752750D02*
D03*
X746250D02*
D03*
X765750D02*
D03*
X759250Y732300D02*
D03*
X752750D02*
D03*
X746250D02*
D03*
X765750D02*
D03*
D35*
X770000Y438000D02*
D03*
X795000D02*
D03*
Y413000D02*
D03*
X770000D02*
D03*
D36*
X767000Y418000D02*
D03*
Y423000D02*
D03*
Y428000D02*
D03*
Y433000D02*
D03*
X798000D02*
D03*
Y428000D02*
D03*
Y423000D02*
D03*
Y418000D02*
D03*
D37*
X775000Y441000D02*
D03*
X780000D02*
D03*
X785000D02*
D03*
X790000D02*
D03*
Y410000D02*
D03*
X785000D02*
D03*
X780000D02*
D03*
X775000D02*
D03*
D38*
X782500Y425500D02*
D03*
D39*
X797500Y358450D02*
D03*
X788000D02*
D03*
X778500D02*
D03*
Y383550D02*
D03*
X788000D02*
D03*
X797500D02*
D03*
D40*
X564000Y261250D02*
D03*
X496000D02*
D03*
D41*
X540000Y238750D02*
D03*
X520000D02*
D03*
D42*
X716400Y346250D02*
D03*
X746100D02*
D03*
D43*
X618000Y424750D02*
D03*
X641000D02*
D03*
X664000D02*
D03*
D44*
X641000Y482750D02*
D03*
D45*
X593000Y467750D02*
D03*
Y438250D02*
D03*
X1048000Y686750D02*
D03*
Y657250D02*
D03*
D46*
X656750Y398000D02*
D03*
X627250D02*
D03*
X1178750Y487000D02*
D03*
X1149250D02*
D03*
D47*
X940200Y636500D02*
D03*
Y625500D02*
D03*
D48*
X975300Y631000D02*
D03*
D49*
X1196000Y637000D02*
D03*
X1207000D02*
D03*
X1185000D02*
D03*
Y648000D02*
D03*
X1196000D02*
D03*
X1207000D02*
D03*
Y626000D02*
D03*
X1196000D02*
D03*
X1185000D02*
D03*
D50*
X1023500Y446500D02*
D03*
X1274500D02*
D03*
X1023500Y231500D02*
D03*
X1296500D02*
D03*
D51*
X1253750Y464500D02*
D03*
X1228750D02*
D03*
X1203750D02*
D03*
X1178750D02*
D03*
X1153750D02*
D03*
X1128750D02*
D03*
X1103750D02*
D03*
X1079500D02*
D03*
X1062500D02*
D03*
D52*
X1049500D02*
D03*
X1037500D02*
D03*
D53*
X879352Y595444D02*
D03*
X892352D02*
D03*
Y573219D02*
D03*
X885852D02*
D03*
X879352D02*
D03*
D104*
X971000Y681000D02*
G03*
X974000Y678000I3000J0D01*
G01*
X971000Y681000D02*
G03*
X967000Y681000I-2000J0D01*
G01*
X963000Y678000D02*
G03*
X967000Y678000I2000J0D01*
G01*
X963000Y680482D02*
G03*
X959000Y680482I-2000J0D01*
G01*
X955000Y678000D02*
G03*
X959000Y678000I2000J0D01*
G01*
X955000Y684000D02*
G03*
X951000Y684000I-2000J0D01*
G01*
X947000Y678000D02*
G03*
X951000Y678000I2000J0D01*
G01*
X947000Y684000D02*
G03*
X943000Y684000I-2000J0D01*
G01*
X939000Y678000D02*
G03*
X943000Y678000I2000J0D01*
G01*
X939000Y684000D02*
G03*
X935000Y684000I-2000J0D01*
G01*
X931000Y678000D02*
G03*
X935000Y678000I2000J0D01*
G01*
X931000Y684000D02*
G03*
X927000Y684000I-2000J0D01*
G01*
X923000Y678000D02*
G03*
X927000Y678000I2000J0D01*
G01*
X923000Y684000D02*
G03*
X919000Y684000I-2000J0D01*
G01*
X915000Y678000D02*
G03*
X919000Y678000I2000J0D01*
G01*
X915000Y684000D02*
G03*
X911000Y684000I-2000J0D01*
G01*
X907000Y678000D02*
G03*
X911000Y678000I2000J0D01*
G01*
X907000Y684000D02*
G03*
X903000Y684000I-2000J0D01*
G01*
X899000Y678000D02*
G03*
X903000Y678000I2000J0D01*
G01*
X899000Y684000D02*
G03*
X895000Y684000I-2000J0D01*
G01*
X891000Y678000D02*
G03*
X895000Y678000I2000J0D01*
G01*
X891000Y684000D02*
G03*
X887000Y684000I-2000J0D01*
G01*
X884000Y678000D02*
G03*
X887000Y681000I0J3000D01*
G01*
X980950Y460050D02*
Y468750D01*
X981000D02*
Y513950D01*
X963000Y410750D02*
X1006750D01*
X895250Y300000D02*
Y343000D01*
X963000Y410750D01*
X895250Y297150D02*
Y300000D01*
X980950Y586000D02*
Y597493D01*
X982707Y599250D01*
X988750D01*
X886300Y242500D02*
X907200D01*
X884250Y240450D02*
X886300Y242500D01*
X907200D02*
X909250Y240450D01*
X814200Y412000D02*
X816450Y409750D01*
Y402500D02*
Y409750D01*
X809250Y412000D02*
X814200D01*
X816450Y402500D02*
X818700Y400250D01*
X1270900Y639000D02*
X1273900D01*
X1267900Y636000D02*
X1270900Y639000D01*
X1267900Y635485D02*
Y636000D01*
X1247915Y615500D02*
X1267900Y635485D01*
X1128952Y539712D02*
X1138942Y549702D01*
X1151048Y553538D02*
Y561808D01*
X1147212Y549702D02*
X1151048Y553538D01*
X1138942Y549702D02*
X1147212D01*
X1193740Y604500D02*
X1266400D01*
X1151048Y561808D02*
X1193740Y604500D01*
X1144569Y556319D02*
Y564569D01*
X1189500Y609500D01*
X1144500Y556250D02*
X1144569Y556319D01*
X1061100Y580658D02*
X1085259Y556500D01*
X1108500D01*
X1090250Y564500D02*
X1120500D01*
X1120750Y564750D01*
X1138021Y563698D02*
Y566506D01*
X1128952Y526702D02*
Y539712D01*
X1123750Y509500D02*
Y521500D01*
X1128952Y526702D01*
X1053638Y561500D02*
X1066500D01*
X1029138Y586000D02*
X1053638Y561500D01*
X1072324Y582426D02*
X1090250Y564500D01*
X1068750Y583000D02*
X1069324Y582426D01*
X1072324D01*
X1077250Y606000D02*
X1080250Y609000D01*
X1077250Y605800D02*
Y606000D01*
X1049592Y578342D02*
X1075000Y603750D01*
X1080250Y609000D02*
X1098900D01*
X1075200Y603750D02*
X1077250Y605800D01*
X1075000Y603750D02*
X1075200D01*
X1047342Y578342D02*
X1049592D01*
X1046750Y577750D02*
X1047342Y578342D01*
X1138021Y566506D02*
X1187015Y615500D01*
X1247915D01*
X1189500Y609500D02*
X1250400D01*
X1264900Y624000D01*
X1273900D01*
X1270900Y609000D02*
X1273900D01*
X1266400Y604500D02*
X1270900Y609000D01*
X1130750Y663750D02*
X1136000Y669000D01*
X1130750Y554500D02*
Y663750D01*
X1109125Y532875D02*
X1130750Y554500D01*
X1152000Y537000D02*
X1163750Y548750D01*
X1174500D02*
X1219750Y594000D01*
X1163750Y548750D02*
X1174500D01*
X1135500Y537000D02*
X1152000D01*
X1107278Y531278D02*
X1109000Y533000D01*
X1085250Y525000D02*
X1108176Y547926D01*
X1111426D02*
X1112000Y548500D01*
X1108176Y547926D02*
X1111426D01*
X1170000Y536000D02*
X1189000D01*
X1170000D02*
Y537000D01*
X1076740Y525000D02*
X1085250D01*
X930839Y543000D02*
X1058740D01*
X1076740Y525000D02*
X1077250D01*
X1058740Y543000D02*
X1076740Y525000D01*
X1219750Y594000D02*
X1273900D01*
X1115592Y480158D02*
X1128750Y467000D01*
X1113500Y480750D02*
X1114092Y480158D01*
X1128750Y464500D02*
Y467000D01*
X1114092Y480158D02*
X1115592D01*
X1120500Y506250D02*
X1123750Y509500D01*
X1103250Y506250D02*
X1120500D01*
X1052200Y538000D02*
X1061922Y528278D01*
Y524328D02*
X1062250Y524000D01*
X1061922Y524328D02*
Y528278D01*
X958750Y538000D02*
X1052200D01*
X894090Y506250D02*
X930839Y543000D01*
X769929Y506250D02*
X894090D01*
X744952Y481273D02*
X769929Y506250D01*
X744952Y444805D02*
Y481273D01*
Y444805D02*
X761757Y428000D01*
X767000D01*
X1058787Y552213D02*
X1074500Y536500D01*
X1035137Y552213D02*
X1058787D01*
X1085250Y513500D02*
X1103028Y531278D01*
X1085250Y508000D02*
Y513500D01*
X1103028Y531278D02*
X1107278D01*
X922000Y501250D02*
X958750Y538000D01*
X772000Y501250D02*
X922000D01*
X749952Y479202D02*
X772000Y501250D01*
X749952Y447048D02*
Y479202D01*
Y447048D02*
X764000Y433000D01*
X749952Y479202D02*
X750500Y479750D01*
X788250Y467250D02*
X861250D01*
X869983Y417243D02*
Y458517D01*
X861250Y467250D02*
X869983Y458517D01*
X764000Y433000D02*
X767000D01*
X768500Y445438D02*
X770000Y443938D01*
Y438000D02*
Y443938D01*
X768500Y445438D02*
Y446250D01*
X841500Y448250D02*
Y456750D01*
X836202Y462048D02*
X841500Y456750D01*
X809798Y462048D02*
X836202D01*
X805500Y457750D02*
X809798Y462048D01*
X805500Y430257D02*
Y457750D01*
X803243Y428000D02*
X805500Y430257D01*
X798000Y428000D02*
X803243D01*
X779500Y451438D02*
Y452250D01*
X775000Y446938D02*
X779500Y451438D01*
X775000Y441000D02*
Y446938D01*
X927000Y316750D02*
Y322250D01*
Y316750D02*
X942000Y301750D01*
Y300250D02*
Y301750D01*
X1099150Y684250D02*
X1113000D01*
X1098900Y684000D02*
X1099150Y684250D01*
X1099650Y594750D02*
X1117250D01*
X1098900Y594000D02*
X1099650Y594750D01*
X976250Y280250D02*
Y283850D01*
X1035750Y343350D02*
Y409250D01*
X976250Y283850D02*
X1035750Y343350D01*
X976250Y276650D02*
Y280250D01*
X747000Y739000D02*
X752750Y744750D01*
Y751700D01*
X732750Y714000D02*
X747000D01*
X746250Y714750D02*
Y732300D01*
X747000Y733050D01*
X746250Y714750D02*
X747000Y714000D01*
X753500Y745000D02*
X759250Y739250D01*
X747000Y733050D02*
Y739000D01*
X759250Y732300D02*
Y739250D01*
X1124750Y675500D02*
X1254900D01*
X1118000Y668750D02*
X1124750Y675500D01*
X1254900D02*
X1262400D01*
X987926Y655926D02*
X988500Y656500D01*
X980893Y654000D02*
X982819Y655926D01*
X987926D01*
X967500Y654000D02*
X980893D01*
X981092Y678000D02*
X1027401D01*
X1262400Y675500D02*
X1270900Y684000D01*
X1273900D01*
X1009500Y646500D02*
X1080471D01*
X956250Y593250D02*
X1009500Y646500D01*
X1080471D02*
X1087971Y654000D01*
X929000Y593250D02*
X956250D01*
X1087971Y654000D02*
X1098900D01*
X868226Y419000D02*
X869983Y417243D01*
Y387233D02*
Y417243D01*
X846250Y363500D02*
X869983Y387233D01*
X829250Y419000D02*
X868226D01*
X820250Y428000D02*
X829250Y419000D01*
X819750Y428000D02*
X820250D01*
X846250Y362000D02*
Y363500D01*
X814750Y423000D02*
X819750Y428000D01*
X798000Y423000D02*
X814750D01*
X873500Y268750D02*
X874074Y268176D01*
X876155D01*
X876757Y267574D01*
X895924D01*
X904750Y276400D01*
Y280000D01*
X863250Y245250D02*
X864452Y246452D01*
Y272812D01*
X887290Y295650D01*
X893750D01*
X895250Y297150D01*
X707000Y231250D02*
X707500D01*
X703750Y234500D02*
X707000Y231250D01*
X692250Y234500D02*
X703750D01*
X723000Y303750D02*
X735750Y316500D01*
X736000D01*
X722000Y303750D02*
X723000D01*
X779408Y330016D02*
Y330854D01*
Y330016D02*
X780655Y328769D01*
Y316050D02*
Y328769D01*
X1080000Y465000D02*
Y486250D01*
X1079500Y464500D02*
X1080000Y465000D01*
X754946Y418000D02*
X767000D01*
X747696Y410750D02*
X754946Y418000D01*
X725550Y410750D02*
X747696D01*
X717550Y418750D02*
X725550Y410750D01*
X699000Y418750D02*
X717550D01*
X752875Y423000D02*
X767000D01*
X748625Y418750D02*
X752875Y423000D01*
X733000Y418750D02*
X748625D01*
X967500Y652500D02*
X975300Y644700D01*
Y631000D02*
Y644700D01*
X849250Y632500D02*
X850000Y633250D01*
X849250Y612500D02*
Y632500D01*
X849000Y612250D02*
X849250Y612500D01*
X829500Y612250D02*
X849000D01*
X811500Y611750D02*
X812000Y612250D01*
X790500Y611750D02*
X811500D01*
X773750Y567750D02*
X783750Y557750D01*
X773750Y567750D02*
Y606000D01*
X779500Y611750D01*
X790500D01*
X819750Y577250D02*
X837500D01*
X790500Y595750D02*
X801250D01*
X819750Y577250D01*
X837500D02*
X840500Y574250D01*
X903806Y595444D02*
X908750Y590500D01*
X892352Y595444D02*
X903806D01*
X911500Y593250D02*
X929000D01*
X908750Y590500D02*
X911500Y593250D01*
X926750Y574500D02*
X929000Y572250D01*
X908750Y574500D02*
X926750D01*
X907469Y573219D02*
X908750Y574500D01*
X892352Y573219D02*
X907469D01*
X892352Y570362D02*
Y573219D01*
Y570362D02*
X892750Y569963D01*
Y558000D02*
Y569963D01*
X871750Y539250D02*
X874000Y537000D01*
X871750Y539250D02*
Y558000D01*
X879352Y573219D02*
Y574476D01*
X879328Y574500D02*
X879352Y574476D01*
X860500Y574500D02*
X879328D01*
X860250Y574250D02*
X860500Y574500D01*
X840500Y574250D02*
X860250D01*
X732750Y260750D02*
X738097D01*
X723000Y251000D02*
X732750Y260750D01*
X722000Y251000D02*
X723000D01*
X798750Y758000D02*
X811750D01*
X822250Y747500D01*
X810158Y725592D02*
X810750Y725000D01*
X809158Y725592D02*
X810158D01*
X798750Y736000D02*
X809158Y725592D01*
X798750Y736000D02*
Y737000D01*
X980950Y586000D02*
X993650D01*
X933750Y654000D02*
X946500D01*
X885500Y612250D02*
X895883D01*
X878250D02*
X885500D01*
X1006350Y491650D02*
X1007000Y491000D01*
X1006350Y491650D02*
Y514000D01*
X1007000Y470750D02*
X1007500Y470250D01*
X1007000Y470750D02*
Y491000D01*
X1172000Y512000D02*
X1183662D01*
X1186162Y509500D02*
X1187000D01*
X1183662Y512000D02*
X1186162Y509500D01*
X1172000Y511500D02*
Y512000D01*
Y511500D02*
X1178750Y504750D01*
Y487000D02*
Y504750D01*
X1205500Y488000D02*
Y498500D01*
X1211500Y504500D01*
X1178750Y483700D02*
Y487000D01*
X1174450Y479400D02*
X1178750Y483700D01*
X1168650Y479400D02*
X1174450D01*
X1159750Y470500D02*
X1168650Y479400D01*
X1157250Y470500D02*
X1159750D01*
X1153750Y467000D02*
X1157250Y470500D01*
X1153750Y464500D02*
Y467000D01*
X867000Y612250D02*
X878250D01*
X895883D02*
X896852Y613219D01*
X866750Y612500D02*
X867000Y612250D01*
X868125Y610375D02*
X868875D01*
X865000Y607250D02*
X868125Y610375D01*
X865000Y598500D02*
Y607250D01*
X862000Y595500D02*
X865000Y598500D01*
X860500Y595500D02*
X862000D01*
X868875Y610375D02*
X871000Y608250D01*
Y606653D02*
Y608250D01*
Y606653D02*
X879352Y598302D01*
Y595444D02*
Y598302D01*
X848000Y224250D02*
X863250D01*
X818700Y384300D02*
Y400250D01*
Y384300D02*
X819500Y383500D01*
X841500Y427250D02*
X855500D01*
X801000Y416864D02*
Y418000D01*
X802250Y407500D02*
Y415614D01*
X801000Y416864D02*
X802250Y415614D01*
X798000Y418000D02*
X801000D01*
X795129Y413129D02*
Y418000D01*
X795000Y413000D02*
X795129Y413129D01*
Y418000D02*
X798000D01*
X691750Y234500D02*
X692250D01*
X684100Y242150D02*
X691750Y234500D01*
X655850Y242150D02*
X684100D01*
X655850D02*
Y247150D01*
Y237150D02*
Y242150D01*
X942000Y300250D02*
X966750D01*
X976250Y276650D02*
X990750Y262150D01*
Y239250D02*
Y262150D01*
X941750Y280250D02*
X957250D01*
X920500Y280000D02*
X920750Y280250D01*
X904750Y280000D02*
X920500D01*
X921000Y298750D02*
Y300250D01*
X918000Y295750D02*
X921000Y298750D01*
X906390Y295750D02*
X918000D01*
X896995Y286355D02*
X906390Y295750D01*
X896995Y283745D02*
Y286355D01*
X893250Y280000D02*
X896995Y283745D01*
X885750Y280000D02*
X893250D01*
X864750Y245250D02*
X872250Y237750D01*
X884250D01*
X909250Y240450D02*
Y249000D01*
X884250Y237750D02*
Y240450D01*
X909250Y235050D02*
Y240450D01*
X904750Y253500D02*
X909250Y249000D01*
Y235050D02*
X909500Y234800D01*
X884250Y235050D02*
Y237750D01*
X884000Y234800D02*
X884250Y235050D01*
X942750Y234800D02*
X943000Y235050D01*
Y240450D01*
X945050Y242500D01*
X965950D01*
X968000Y240450D01*
Y235050D02*
Y240450D01*
Y235050D02*
X968250Y234800D01*
X986300D02*
X990750Y239250D01*
X968250Y234800D02*
X986300D01*
X968250Y223100D02*
Y223200D01*
X974400Y216950D02*
X974500D01*
X968250Y223100D02*
X974400Y216950D01*
X930750Y217500D02*
X936450Y223200D01*
X942750D01*
X916850Y215750D02*
X916950D01*
X909500Y223100D02*
X916850Y215750D01*
X909500Y223100D02*
Y223200D01*
X876500Y215700D02*
X876600D01*
X884000Y223100D01*
Y223200D01*
X1070500Y655250D02*
X1082150D01*
X1095900Y669000D01*
X1098900D01*
X808250Y747750D02*
X850000Y706000D01*
X781250Y757000D02*
X785500Y752750D01*
X786500D02*
X791500Y747750D01*
X781250Y757000D02*
Y758000D01*
X785500Y752750D02*
X786500D01*
X791500Y747750D02*
X808250D01*
X760000Y747370D02*
X769370Y738000D01*
X780250D01*
X760000Y747370D02*
Y750950D01*
X758500Y752450D02*
X760000Y750950D01*
X758500Y752450D02*
Y755270D01*
X780250Y738000D02*
X781250Y737000D01*
X782493Y735757D01*
X646140Y758040D02*
X755730D01*
X758500Y755270D01*
X631500Y261500D02*
Y266569D01*
X626409Y271660D02*
X631500Y266569D01*
X605250Y275500D02*
Y287250D01*
Y275500D02*
X609090Y271660D01*
X626409D01*
X602250Y290250D02*
X605250Y287250D01*
X636500Y261500D02*
Y270750D01*
X624750Y282500D02*
X636500Y270750D01*
X623250Y282500D02*
X624750D01*
X641500Y261500D02*
Y271250D01*
X653750Y283500D01*
X655250D01*
X685750D02*
X687250D01*
X663750Y261500D02*
X685750Y283500D01*
X646500Y261500D02*
X663750D01*
X655850Y252150D02*
X658350D01*
X661950Y255750D01*
X681500D01*
X539500Y441750D02*
X540000Y442250D01*
X539500Y423500D02*
Y441750D01*
X609600Y247150D02*
X617150D01*
X600750Y256000D02*
X609600Y247150D01*
X600750Y256000D02*
Y257000D01*
X608250Y240250D02*
X610150Y242150D01*
X617150D01*
X602750Y240250D02*
X608250D01*
X598500Y236000D02*
X602750Y240250D01*
X980950Y460050D02*
X1021000Y420000D01*
X1287000D01*
X1297540Y430540D01*
Y544540D01*
X1303000Y550000D01*
X1273900Y558100D02*
X1281000Y551000D01*
X1273900Y558100D02*
Y579000D01*
X1006350Y591000D02*
X1045100Y629750D01*
X1006350Y581000D02*
X1035137Y552213D01*
X1006350Y581000D02*
Y586000D01*
X1019436Y588000D02*
X1020046D01*
X1027138D02*
X1029138Y586000D01*
X1019436Y588000D02*
X1020046Y588610D01*
X1019050Y586000D02*
X1029138D01*
X1020046Y588000D02*
Y588610D01*
X1021819Y588000D02*
X1027138D01*
X1020046Y588610D02*
X1020436Y589000D01*
X1020046Y588000D02*
X1021819D01*
X1046250Y607498D02*
Y609750D01*
X1026945Y588193D02*
X1046250Y607498D01*
Y609750D02*
X1050500Y614000D01*
X1189000Y536000D02*
X1194000Y531000D01*
Y476750D02*
X1203750Y467000D01*
X1194000Y476750D02*
Y531000D01*
X1203750Y464500D02*
Y467000D01*
X1050250Y634000D02*
Y635000D01*
X1046000Y629750D02*
X1050250Y634000D01*
X1045100Y629750D02*
X1046000D01*
X1006350Y586000D02*
Y591000D01*
X1095900Y639000D02*
X1098900D01*
X1091900Y635000D02*
X1095900Y639000D01*
X1067750Y635000D02*
X1091900D01*
X1095900Y624000D02*
X1098900D01*
X1085900Y614000D02*
X1095900Y624000D01*
X1068000Y614000D02*
X1085900D01*
X1003400Y528750D02*
X1044000D01*
X993650Y519000D02*
X1003400Y528750D01*
X993650Y514000D02*
Y519000D01*
X1226500Y466750D02*
X1228750Y464500D01*
X1226500Y466750D02*
Y487000D01*
X1250000D01*
X1292000Y529000D01*
Y683900D01*
X1276900Y699000D02*
X1292000Y683900D01*
X1273900Y699000D02*
X1276900D01*
X1055089Y500162D02*
X1076412D01*
X1044000Y511250D02*
X1045000D01*
X1049250Y507000D01*
X1076412Y500162D02*
X1080000Y503750D01*
X1049250Y506000D02*
Y507000D01*
Y506000D02*
X1055089Y500162D01*
X1081000Y503750D02*
X1085250Y508000D01*
X1136000Y669000D02*
X1273900D01*
X974000Y678000D02*
X981092D01*
X971000Y681000D02*
Y681000D01*
X967000Y678000D02*
Y681000D01*
X963000Y678000D02*
Y680482D01*
X959000Y678000D02*
Y680482D01*
X955000Y678000D02*
Y684000D01*
X951000Y678000D02*
Y684000D01*
X947000Y678000D02*
Y684000D01*
X943000Y678000D02*
Y684000D01*
X939000Y678000D02*
Y684000D01*
X935000Y678000D02*
Y684000D01*
X931000Y678000D02*
Y684000D01*
X927000Y678000D02*
Y684000D01*
X923000Y678000D02*
Y684000D01*
X919000Y678000D02*
Y684000D01*
X915000Y678000D02*
Y684000D01*
X911000Y678000D02*
Y684000D01*
X907000Y678000D02*
Y684000D01*
X903000Y678000D02*
Y684000D01*
X899000Y678000D02*
Y684000D01*
X895000Y678000D02*
Y684000D01*
X891000Y678000D02*
Y684000D01*
X887000Y681000D02*
Y684000D01*
X882500Y678000D02*
X884000D01*
X520000Y459500D02*
Y631900D01*
X472000Y411500D02*
X520000Y459500D01*
Y631900D02*
X632100Y744000D01*
X646140Y758040D01*
X472000Y436500D02*
X509000Y473500D01*
Y646300D01*
X606700Y744000D01*
X857000Y678000D02*
X882500D01*
X820000Y715000D02*
X857000Y678000D01*
X793000Y715000D02*
X820000D01*
X782493Y725507D02*
Y735757D01*
Y725507D02*
X793000Y715000D01*
X850000Y706000D02*
X1059305D01*
X778669Y760581D02*
X781250Y758000D01*
X1063587Y701718D02*
X1077718D01*
X1059305Y706000D02*
X1063587Y701718D01*
X1252000Y654000D02*
X1252000Y654000D01*
X1273900D01*
X762541Y760581D02*
X778669D01*
X765540Y751910D02*
Y755392D01*
X761446Y759486D02*
X765540Y755392D01*
X756801Y763580D02*
X757352D01*
X761446Y759486D01*
X756801Y763580D02*
X756802Y763581D01*
X626280Y763580D02*
X756801D01*
X761446Y759486D02*
X762541Y760581D01*
X765540Y751910D02*
X765750Y751700D01*
X606700Y744000D02*
X626280Y763580D01*
D105*
X636500Y242150D02*
D03*
D106*
X981000Y491350D02*
D03*
X1029000Y613000D02*
D03*
X1271000Y508000D02*
D03*
X1170000Y537000D02*
D03*
X1109000Y533000D02*
D03*
D107*
X618000Y259381D02*
Y260000D01*
X614750Y256131D02*
X618000Y259381D01*
X614750Y256000D02*
Y256131D01*
X626500Y252150D02*
X636500Y242150D01*
X1190500Y637000D02*
X1196000D01*
X1084750Y580500D02*
X1085369D01*
X1086869Y579000D02*
X1098900D01*
X1085369Y580500D02*
X1086869Y579000D01*
X819750Y444000D02*
X820000Y444250D01*
Y455500D01*
X1030750Y657500D02*
X1047750D01*
X1048000Y657250D01*
X775250Y304050D02*
X775750Y303550D01*
X775250Y304050D02*
Y323040D01*
X762040Y336250D02*
X775250Y323040D01*
X756250Y336250D02*
X762040D01*
X800250Y316050D02*
X800575Y316375D01*
X800000Y315800D02*
X800250Y316050D01*
X822655Y358644D02*
X825250Y361239D01*
Y362000D01*
X802199Y343199D02*
X817644Y358644D01*
X802199Y324989D02*
Y343199D01*
X817644Y358644D02*
X822655D01*
X800575Y316375D02*
Y323365D01*
X802199Y324989D01*
X828500Y358500D02*
X834000Y353000D01*
Y329000D02*
Y353000D01*
X788000Y343500D02*
Y358450D01*
X632105Y219514D02*
X637750Y213869D01*
Y213250D02*
Y213869D01*
X632105Y219514D02*
Y220505D01*
X631500Y222800D02*
X636500D01*
X641500D01*
X800000Y303800D02*
Y315800D01*
X799750Y303550D02*
X800000Y303800D01*
X733000Y439750D02*
Y462250D01*
X699000Y461750D02*
X699250Y462000D01*
X699000Y439750D02*
Y461750D01*
X765250Y725000D02*
X765750Y725500D01*
X765250Y719750D02*
Y725000D01*
Y719750D02*
X765750Y719250D01*
Y725500D02*
Y732300D01*
Y716750D02*
Y719250D01*
X763000Y714000D02*
X765750Y716750D01*
Y715000D02*
X778000D01*
X753095Y728562D02*
X762407Y719250D01*
X765405D01*
X753095Y728562D02*
Y731955D01*
X752750Y732300D02*
X753095Y731955D01*
X790405Y443595D02*
X794063Y447253D01*
Y451063D01*
X794500Y451500D01*
X566155Y231155D02*
X577155D01*
X565750Y230750D02*
X566155Y231155D01*
X577155D02*
X581000Y235000D01*
Y236000D01*
X682750Y333500D02*
X687250Y329000D01*
Y304500D02*
Y329000D01*
X651750Y334500D02*
X655250Y331000D01*
Y304500D02*
Y331000D01*
X619750Y333500D02*
X623250Y330000D01*
Y303500D02*
Y330000D01*
X1135250Y485500D02*
X1135869D01*
X1137369Y487000D01*
X1149250D01*
X1139250Y513000D02*
X1155000D01*
X1156000Y512000D01*
X787750Y372500D02*
X787875Y372625D01*
Y383425D01*
X788000Y383550D01*
X779929Y404080D02*
Y409929D01*
X769937Y398937D02*
X774787D01*
X779929Y404080D01*
X769500Y398500D02*
X769937Y398937D01*
X860131Y397500D02*
X860750D01*
X858576Y399055D02*
X860131Y397500D01*
X852895Y399055D02*
X858576D01*
X848800Y403150D02*
X852895Y399055D01*
X848800Y403150D02*
Y406250D01*
X835750Y383250D02*
X851000D01*
X835500Y383500D02*
X835750Y383250D01*
X756500Y467000D02*
X767000D01*
X767250Y467250D01*
X780000Y423000D02*
X782500Y425500D01*
X780000Y410000D02*
Y423000D01*
X779929Y409929D02*
X780000Y410000D01*
X525750Y401250D02*
X526369D01*
X527619Y402500D01*
X539500D01*
X830450Y292050D02*
Y295490D01*
X827360Y298580D02*
X830450Y295490D01*
X821448Y298580D02*
X827360D01*
X816478Y303550D02*
X821448Y298580D01*
X815750Y303550D02*
X816478D01*
X815250Y312360D02*
Y316050D01*
Y312360D02*
X815750Y311860D01*
Y303550D02*
Y311860D01*
X807750Y303550D02*
X815750D01*
X787750Y239250D02*
Y270250D01*
X830450Y244750D02*
Y292050D01*
X745050Y244750D02*
X830450D01*
X745050D02*
Y292050D01*
X759750Y303550D02*
X767750D01*
X759750D02*
X760000Y303800D01*
Y315800D01*
X760250Y316050D01*
X759235Y303035D02*
X759750Y303550D01*
X752596Y303035D02*
X759235D01*
X745050Y295490D02*
X752596Y303035D01*
X745050Y292050D02*
Y295490D01*
X707500Y284250D02*
X720000D01*
X722000Y286250D01*
X706500Y270000D02*
X707119D01*
X708619Y268500D01*
X722000D01*
X705750Y268962D02*
Y269000D01*
X702500Y265712D02*
X705750Y268962D01*
X702500Y255750D02*
Y265712D01*
X692250Y218500D02*
X707000D01*
X692250Y218500D02*
X692250Y218500D01*
X598000Y272750D02*
Y272750D01*
X583250Y258000D02*
X598000Y272750D01*
X583250Y257000D02*
Y258000D01*
X564000Y296500D02*
X575000D01*
X577155Y294345D01*
X578655D01*
X581250Y291750D01*
Y290250D02*
Y291750D01*
X885801Y573270D02*
X885852Y573219D01*
X885801Y573270D02*
Y584449D01*
X885750Y584500D02*
X885801Y584449D01*
X890500Y537500D02*
X908750D01*
X890000Y537000D02*
X890500Y537500D01*
X817250Y595000D02*
X817375Y595125D01*
X840375D01*
X840500Y595250D01*
X734000Y750000D02*
X734619D01*
X736319Y751700D01*
X746250D01*
X882631Y635500D02*
X883250D01*
X880381Y633250D02*
X882631Y635500D01*
X866000Y633250D02*
X880381D01*
X911250Y628881D02*
Y629500D01*
Y628881D02*
X912852Y627280D01*
Y613219D02*
Y627280D01*
X923500Y642000D02*
X929000Y636500D01*
X940200D01*
X1064000Y670250D02*
X1075750D01*
X1077000Y669000D01*
X1196000Y626000D02*
Y631500D01*
X1190500Y626000D02*
X1196000D01*
X1201500D02*
X1207000D01*
Y631500D02*
Y637000D01*
X1196000D02*
X1201500D01*
X1185000D02*
X1190500D01*
X1185000Y626000D02*
Y631500D01*
Y637000D01*
Y642500D02*
Y648000D01*
X1196000Y637000D02*
Y642500D01*
X1201500Y648000D02*
X1207000D01*
X1196000D02*
X1201500D01*
X1190500D02*
X1196000D01*
X1185000D02*
X1190500D01*
X1032813Y502187D02*
X1033250Y501750D01*
X1025863Y502187D02*
X1032813D01*
X1019050Y509000D02*
X1025863Y502187D01*
X1019050Y509000D02*
Y514000D01*
X1035215Y491000D02*
X1040000Y486215D01*
X1023000Y491000D02*
X1035215D01*
X1040000Y485750D02*
Y486215D01*
X1006750Y454750D02*
X1017905D01*
X1023500Y449155D01*
Y446500D02*
Y449155D01*
X1112813Y446437D02*
X1113250Y446000D01*
X1112813Y446437D02*
Y452937D01*
X1103750Y462000D02*
X1112813Y452937D01*
X1103750Y462000D02*
Y464500D01*
X1180500Y445500D02*
Y446119D01*
X1178750Y447869D02*
X1180500Y446119D01*
X1178750Y447869D02*
Y464500D01*
X1277500Y473881D02*
Y474500D01*
X1274500Y470881D02*
X1277500Y473881D01*
X1274500Y446500D02*
Y470881D01*
X1271250Y240750D02*
X1290905D01*
X1296500Y235155D01*
Y231500D02*
Y235155D01*
X1009750Y237500D02*
X1017905D01*
X1023500Y231905D01*
Y231500D02*
Y231905D01*
X1003595Y218655D02*
X1006750Y215500D01*
X995345Y218655D02*
X1003595D01*
X990750Y223250D02*
X995345Y218655D01*
X885250Y257000D02*
X888750Y253500D01*
X871000Y261000D02*
X875000Y257000D01*
X885250D01*
X850000Y329000D02*
X868000D01*
D108*
X1046200Y688550D02*
X1048000Y686750D01*
X1022000Y693750D02*
X1027200Y688550D01*
X1046200D01*
X1098400Y698500D02*
X1098900Y699000D01*
X1091000Y698500D02*
X1098400D01*
X1077500Y685000D02*
X1091000Y698500D01*
X1077000Y685000D02*
X1077500D01*
X1075250Y686750D02*
X1077000Y685000D01*
X1048000Y686750D02*
X1075250D01*
D109*
X777700Y359250D02*
X778500Y358450D01*
X768250Y359250D02*
X777700D01*
X797500Y358450D02*
X799050Y360000D01*
X809500D01*
X778500Y342500D02*
Y358450D01*
X785250Y316050D02*
Y335750D01*
X778500Y342500D02*
X785250Y335750D01*
X790250Y316050D02*
Y335144D01*
X797500Y342394D01*
Y358450D01*
X789786Y394364D02*
X797500Y386650D01*
X778500D02*
X785214Y393364D01*
Y409786D01*
X789786Y394364D02*
Y409786D01*
X785000Y410000D02*
X785214Y409786D01*
X778500Y383550D02*
Y386650D01*
X797500Y383550D02*
Y386650D01*
X789786Y409786D02*
X790000Y410000D01*
D110*
X716400Y346250D02*
Y353600D01*
X715500Y354500D02*
X716400Y353600D01*
X682750Y354500D02*
X715500D01*
X681750Y355500D02*
X682750Y354500D01*
X651750Y355500D02*
X681750D01*
X651250Y355000D02*
X651750Y355500D01*
X620250Y355000D02*
X651250D01*
X619750Y354500D02*
X620250Y355000D01*
X674698Y222802D02*
X674750Y222750D01*
X660448Y222802D02*
X674698D01*
X657750Y225500D02*
X660448Y222802D01*
X664000Y408550D02*
Y424750D01*
X656750Y401300D02*
X664000Y408550D01*
X656750Y398000D02*
Y401300D01*
Y382250D02*
Y398000D01*
X650000Y375500D02*
X656750Y382250D01*
X650000Y375000D02*
Y375500D01*
Y375000D02*
X663500D01*
X670500Y368000D01*
X540000Y215500D02*
Y238750D01*
Y215500D02*
X607900D01*
X617150Y224750D01*
D111*
X669500Y486500D02*
X673000Y483000D01*
X699250D01*
X699500Y483250D01*
X733000D01*
X641000Y424750D02*
Y482750D01*
X594533Y477033D02*
X601250Y483750D01*
X593000Y467750D02*
X594533Y469283D01*
X601250Y483750D02*
X621500D01*
X594533Y469283D02*
Y477033D01*
X589700Y467750D02*
X593000D01*
X582700Y460750D02*
X589700Y467750D01*
X564500Y460750D02*
X582700D01*
X562000Y463250D02*
X564500Y460750D01*
X540000Y463250D02*
X562000D01*
D112*
X976000Y366500D02*
D03*
X815750Y681750D02*
D03*
X548590Y341948D02*
D03*
D113*
X745050Y292050D02*
D03*
X830450D02*
D03*
X745050Y244750D02*
D03*
X830450D02*
D03*
D114*
X815750Y303550D02*
D03*
X811750Y296450D02*
D03*
X803750D02*
D03*
X799750Y303550D02*
D03*
X795750Y296450D02*
D03*
X791750Y303550D02*
D03*
X783750D02*
D03*
X779750Y296450D02*
D03*
X775750Y303550D02*
D03*
X771750Y296450D02*
D03*
X763750D02*
D03*
X759750Y303550D02*
D03*
X767750D02*
D03*
X807750D02*
D03*
D115*
X472000Y411500D02*
D03*
Y436500D02*
D03*
Y461500D02*
D03*
X581300Y744000D02*
D03*
X606700D02*
D03*
X632100D02*
D03*
D116*
X472000Y386500D02*
D03*
D117*
X492000Y370500D02*
D03*
D118*
X467500Y342450D02*
D03*
Y317050D02*
D03*
Y291650D02*
D03*
Y266250D02*
D03*
D119*
Y240850D02*
D03*
D120*
X555900Y744000D02*
D03*
D121*
X484000Y739000D02*
D03*
X704000D02*
D03*
Y519000D02*
D03*
X484000D02*
D03*
D122*
X1201500Y648000D02*
D03*
X1207000Y642500D02*
D03*
Y631500D02*
D03*
X1190500Y648000D02*
D03*
X1201500Y637000D02*
D03*
X1196000Y642500D02*
D03*
X1185000D02*
D03*
X1190500Y637000D02*
D03*
X1201500Y626000D02*
D03*
X1190500D02*
D03*
X1196000Y631500D02*
D03*
X1185000D02*
D03*
D123*
X1045000Y436500D02*
D03*
D124*
X1255000D02*
D03*
D125*
X783750Y538750D02*
D03*
Y557750D02*
D03*
D126*
X988750Y599250D02*
D03*
X809250Y412000D02*
D03*
X1144500Y556250D02*
D03*
X1108500Y556500D02*
D03*
X1120750Y564750D02*
D03*
X1138021Y563698D02*
D03*
X1066500Y561500D02*
D03*
X1084750Y580500D02*
D03*
X1046750Y577750D02*
D03*
X1135500Y537000D02*
D03*
X1189000Y535750D02*
D03*
X1113500Y480750D02*
D03*
X1074500Y536500D02*
D03*
X820000Y455500D02*
D03*
X1027401Y678000D02*
D03*
X1030750Y657500D02*
D03*
X736000Y316500D02*
D03*
X779408Y330854D02*
D03*
X768250Y359250D02*
D03*
X738097Y260750D02*
D03*
X809500Y360000D02*
D03*
X788000Y343500D02*
D03*
X822250Y747500D02*
D03*
X810750Y725000D02*
D03*
X933750Y654000D02*
D03*
X635750Y355000D02*
D03*
X664250Y354500D02*
D03*
X1007000Y470750D02*
D03*
X1187000Y509500D02*
D03*
X1211500Y504500D02*
D03*
X732750Y714000D02*
D03*
X885500Y612250D02*
D03*
X878250D02*
D03*
X848000Y224250D02*
D03*
X855500Y427250D02*
D03*
X802250Y407500D02*
D03*
X637750Y213250D02*
D03*
X674750Y222750D02*
D03*
X974500Y216950D02*
D03*
X930750Y217500D02*
D03*
X916950Y215750D02*
D03*
X876500Y215700D02*
D03*
X765250Y725000D02*
D03*
X794500Y451500D02*
D03*
X1070500Y655250D02*
D03*
X491750Y477750D02*
D03*
X670500Y368000D02*
D03*
X565750Y230750D02*
D03*
X618000Y260000D02*
D03*
X707500Y231250D02*
D03*
X1135250Y485500D02*
D03*
X1139250Y513000D02*
D03*
X787750Y372500D02*
D03*
X769500Y398500D02*
D03*
X860750Y397500D02*
D03*
X851000Y383250D02*
D03*
X756500Y467000D02*
D03*
X525750Y401250D02*
D03*
X707500Y284250D02*
D03*
X706500Y270000D02*
D03*
X707000Y218500D02*
D03*
X598000Y272750D02*
D03*
X564000Y296500D02*
D03*
X885750Y584500D02*
D03*
X908750Y537500D02*
D03*
X817250Y595000D02*
D03*
X778000Y715000D02*
D03*
X734000Y750000D02*
D03*
X883250Y635500D02*
D03*
X911250Y629500D02*
D03*
X923500Y642000D02*
D03*
X1064000Y670250D02*
D03*
X1033250Y501750D02*
D03*
X1040000Y485750D02*
D03*
X1006750Y454750D02*
D03*
X1113250Y446000D02*
D03*
X1180500Y445500D02*
D03*
X1277500Y474500D02*
D03*
X1271250Y240750D02*
D03*
X1009750Y237500D02*
D03*
X1006750Y215500D02*
D03*
X871000Y261000D02*
D03*
X868000Y329000D02*
D03*
X1281000Y551000D02*
D03*
X1303000Y550000D02*
D03*
X1077718Y701718D02*
D03*
X1252000Y654000D02*
D03*
X620000Y500000D02*
D03*
X630000D02*
D03*
X640000D02*
D03*
X650000D02*
D03*
X660000D02*
D03*
X670000D02*
D03*
X610000D02*
D03*
X605250Y392000D02*
D03*
X593000Y391750D02*
D03*
X578500Y391500D02*
D03*
X578250Y405250D02*
D03*
Y418750D02*
D03*
X564000D02*
D03*
X504750Y217000D02*
D03*
X505000Y228000D02*
D03*
X504750Y236750D02*
D03*
X756250Y357500D02*
D03*
Y346250D02*
D03*
Y336250D02*
D03*
X699750Y331750D02*
D03*
Y347750D02*
D03*
X699250Y362500D02*
D03*
D127*
X1061100Y580658D02*
D03*
X1068750Y583000D02*
D03*
X1112000Y548500D02*
D03*
X1062250Y524000D02*
D03*
X1103250Y506250D02*
D03*
X768500Y446250D02*
D03*
X779500Y452250D02*
D03*
X927000Y322250D02*
D03*
X1113000Y684250D02*
D03*
X1006750Y410750D02*
D03*
X1117250Y594750D02*
D03*
X1035750Y409250D02*
D03*
X1118000Y668750D02*
D03*
X988500Y656500D02*
D03*
X1254900Y675500D02*
D03*
X873500Y268750D02*
D03*
D128*
X1022000Y693750D02*
D03*
M02*
