G04*
G04 #@! TF.GenerationSoftware,Altium Limited,Altium Designer,25.4.2 (15)*
G04*
G04 Layer_Color=8388736*
%FSLAX44Y44*%
%MOMM*%
G71*
G04*
G04 #@! TF.SameCoordinates,5AC55BFC-FCD3-40F5-B288-2FFBB6E5E952*
G04*
G04*
G04 #@! TF.FilePolarity,Negative*
G04*
G01*
G75*
%ADD53R,0.3048X0.8763*%
%ADD54R,0.6516X0.6716*%
%ADD55O,0.7016X1.7016*%
%ADD56R,1.4516X1.2516*%
%ADD57R,1.4016X1.5016*%
%ADD58R,1.0016X1.3016*%
%ADD59R,1.3016X1.0016*%
G04:AMPARAMS|DCode=60|XSize=1.524mm|YSize=0.804mm|CornerRadius=0.177mm|HoleSize=0mm|Usage=FLASHONLY|Rotation=90.000|XOffset=0mm|YOffset=0mm|HoleType=Round|Shape=RoundedRectangle|*
%AMROUNDEDRECTD60*
21,1,1.5240,0.4500,0,0,90.0*
21,1,1.1700,0.8040,0,0,90.0*
1,1,0.3540,0.2250,0.5850*
1,1,0.3540,0.2250,-0.5850*
1,1,0.3540,-0.2250,-0.5850*
1,1,0.3540,-0.2250,0.5850*
%
%ADD60ROUNDEDRECTD60*%
%ADD61R,1.5016X1.4016*%
%ADD62R,1.2516X1.4516*%
%ADD63R,1.6016X1.0016*%
%ADD64R,0.4016X1.3016*%
%ADD65R,0.3016X1.1016*%
%ADD66R,1.3016X1.3016*%
G04:AMPARAMS|DCode=67|XSize=1.3016mm|YSize=1.9216mm|CornerRadius=0.2008mm|HoleSize=0mm|Usage=FLASHONLY|Rotation=0.000|XOffset=0mm|YOffset=0mm|HoleType=Round|Shape=RoundedRectangle|*
%AMROUNDEDRECTD67*
21,1,1.3016,1.5200,0,0,0.0*
21,1,0.9000,1.9216,0,0,0.0*
1,1,0.4016,0.4500,-0.7600*
1,1,0.4016,-0.4500,-0.7600*
1,1,0.4016,-0.4500,0.7600*
1,1,0.4016,0.4500,0.7600*
%
%ADD67ROUNDEDRECTD67*%
G04:AMPARAMS|DCode=68|XSize=0.9416mm|YSize=0.3616mm|CornerRadius=0.1158mm|HoleSize=0mm|Usage=FLASHONLY|Rotation=180.000|XOffset=0mm|YOffset=0mm|HoleType=Round|Shape=RoundedRectangle|*
%AMROUNDEDRECTD68*
21,1,0.9416,0.1300,0,0,180.0*
21,1,0.7100,0.3616,0,0,180.0*
1,1,0.2316,-0.3550,0.0650*
1,1,0.2316,0.3550,0.0650*
1,1,0.2316,0.3550,-0.0650*
1,1,0.2316,-0.3550,-0.0650*
%
%ADD68ROUNDEDRECTD68*%
G04:AMPARAMS|DCode=69|XSize=0.3616mm|YSize=0.9416mm|CornerRadius=0.1158mm|HoleSize=0mm|Usage=FLASHONLY|Rotation=180.000|XOffset=0mm|YOffset=0mm|HoleType=Round|Shape=RoundedRectangle|*
%AMROUNDEDRECTD69*
21,1,0.3616,0.7100,0,0,180.0*
21,1,0.1300,0.9416,0,0,180.0*
1,1,0.2316,-0.0650,0.3550*
1,1,0.2316,0.0650,0.3550*
1,1,0.2316,0.0650,-0.3550*
1,1,0.2316,-0.0650,-0.3550*
%
%ADD69ROUNDEDRECTD69*%
%ADD70R,2.8016X2.8016*%
%ADD71C,1.3016*%
G04:AMPARAMS|DCode=72|XSize=0.694mm|YSize=0.654mm|CornerRadius=0.1583mm|HoleSize=0mm|Usage=FLASHONLY|Rotation=90.000|XOffset=0mm|YOffset=0mm|HoleType=Round|Shape=RoundedRectangle|*
%AMROUNDEDRECTD72*
21,1,0.6940,0.3375,0,0,90.0*
21,1,0.3775,0.6540,0,0,90.0*
1,1,0.3165,0.1688,0.1888*
1,1,0.3165,0.1688,-0.1888*
1,1,0.3165,-0.1688,-0.1888*
1,1,0.3165,-0.1688,0.1888*
%
%ADD72ROUNDEDRECTD72*%
%ADD73R,0.4516X0.4516*%
%ADD74R,1.0016X0.4016*%
%ADD75R,0.4016X1.0016*%
%ADD76R,1.9016X1.9016*%
G04:AMPARAMS|DCode=77|XSize=1.3116mm|YSize=0.6916mm|CornerRadius=0.1246mm|HoleSize=0mm|Usage=FLASHONLY|Rotation=270.000|XOffset=0mm|YOffset=0mm|HoleType=Round|Shape=RoundedRectangle|*
%AMROUNDEDRECTD77*
21,1,1.3116,0.4425,0,0,270.0*
21,1,1.0625,0.6916,0,0,270.0*
1,1,0.2491,-0.2213,-0.5313*
1,1,0.2491,-0.2213,0.5313*
1,1,0.2491,0.2213,0.5313*
1,1,0.2491,0.2213,-0.5313*
%
%ADD77ROUNDEDRECTD77*%
%ADD78R,1.7016X3.1016*%
%ADD79R,1.1016X5.6016*%
G04:AMPARAMS|DCode=80|XSize=1.384mm|YSize=3.014mm|CornerRadius=0.2495mm|HoleSize=0mm|Usage=FLASHONLY|Rotation=0.000|XOffset=0mm|YOffset=0mm|HoleType=Round|Shape=RoundedRectangle|*
%AMROUNDEDRECTD80*
21,1,1.3840,2.5150,0,0,0.0*
21,1,0.8850,3.0140,0,0,0.0*
1,1,0.4990,0.4425,-1.2575*
1,1,0.4990,-0.4425,-1.2575*
1,1,0.4990,-0.4425,1.2575*
1,1,0.4990,0.4425,1.2575*
%
%ADD80ROUNDEDRECTD80*%
%ADD81R,1.0516X2.2516*%
%ADD82R,3.3516X2.2516*%
%ADD83R,1.9216X1.2616*%
%ADD84R,1.2616X1.9216*%
%ADD85R,1.2016X0.9016*%
%ADD86R,1.2016X1.1016*%
%ADD87R,0.8016X0.8016*%
%ADD88R,1.6016X2.9016*%
%ADD89R,1.1016X1.6016*%
%ADD90R,0.8016X1.6016*%
%ADD91C,3.3016*%
%ADD92O,1.1516X2.2016*%
%ADD93C,0.7516*%
%ADD94C,1.6096*%
%ADD95R,1.6096X1.6096*%
%ADD96C,1.4016*%
%ADD97C,1.1628*%
%ADD98R,1.1628X1.1628*%
%ADD99R,1.6096X1.6096*%
%ADD100C,3.1016*%
%ADD101C,1.2516*%
%ADD102C,1.7516*%
%ADD103C,1.3096*%
D53*
X879352Y595444D02*
D03*
X892352D02*
D03*
Y573219D02*
D03*
X885852D02*
D03*
X879352D02*
D03*
D54*
X909500Y223200D02*
D03*
X884000D02*
D03*
X909500Y234800D02*
D03*
X884000D02*
D03*
X968250Y223200D02*
D03*
X942750D02*
D03*
X968250Y234800D02*
D03*
X942750D02*
D03*
D55*
X980950Y586000D02*
D03*
X993650D02*
D03*
X1006350D02*
D03*
X1019050D02*
D03*
Y514000D02*
D03*
X1006350D02*
D03*
X993650D02*
D03*
X980950D02*
D03*
D56*
X1044000Y511250D02*
D03*
Y528750D02*
D03*
X722000Y251000D02*
D03*
Y268500D02*
D03*
X722000Y303750D02*
D03*
Y286250D02*
D03*
X1080000Y503750D02*
D03*
Y486250D02*
D03*
D57*
X1023000Y491000D02*
D03*
X1007000D02*
D03*
X889000Y257000D02*
D03*
X905000D02*
D03*
X835500Y383500D02*
D03*
X819500D02*
D03*
X763000Y714000D02*
D03*
X747000D02*
D03*
X850000Y329000D02*
D03*
X834000D02*
D03*
X890000Y537000D02*
D03*
X874000D02*
D03*
X650000Y375000D02*
D03*
X634000D02*
D03*
X850000Y633250D02*
D03*
X866000D02*
D03*
X1172000Y512000D02*
D03*
X1156000D02*
D03*
X896852Y613219D02*
D03*
X912852D02*
D03*
D58*
X941750Y280250D02*
D03*
X920750D02*
D03*
X921000Y300250D02*
D03*
X942000D02*
D03*
X825250Y362000D02*
D03*
X846250D02*
D03*
X702500Y255750D02*
D03*
X681500D02*
D03*
X1226500Y488000D02*
D03*
X1205500D02*
D03*
X581250Y290250D02*
D03*
X602250D02*
D03*
X788250Y467250D02*
D03*
X767250D02*
D03*
X946500Y654000D02*
D03*
X967500D02*
D03*
X892750Y558000D02*
D03*
X871750D02*
D03*
D59*
X863250Y224250D02*
D03*
Y245250D02*
D03*
X841500Y448250D02*
D03*
Y427250D02*
D03*
X733000Y418750D02*
D03*
Y439750D02*
D03*
X699000Y418750D02*
D03*
Y439750D02*
D03*
X655250Y283500D02*
D03*
Y304500D02*
D03*
X687250Y283500D02*
D03*
Y304500D02*
D03*
X623250Y282500D02*
D03*
Y303500D02*
D03*
X929000Y572250D02*
D03*
Y593250D02*
D03*
X540000Y463250D02*
D03*
Y442250D02*
D03*
X840500Y574250D02*
D03*
Y595250D02*
D03*
X860500Y595500D02*
D03*
Y574500D02*
D03*
D60*
X966750Y300250D02*
D03*
X976250Y280250D02*
D03*
X957250D02*
D03*
X895250Y300000D02*
D03*
X904750Y280000D02*
D03*
X885750D02*
D03*
D61*
X990750Y223250D02*
D03*
Y239250D02*
D03*
X819750Y428000D02*
D03*
Y444000D02*
D03*
X692250Y234500D02*
D03*
Y218500D02*
D03*
X790500Y611750D02*
D03*
Y595750D02*
D03*
X564500Y460750D02*
D03*
Y444750D02*
D03*
X1077000Y685000D02*
D03*
Y669000D02*
D03*
X908750Y590500D02*
D03*
Y574500D02*
D03*
D62*
X583250Y257000D02*
D03*
X600750D02*
D03*
X812000Y612250D02*
D03*
X829500D02*
D03*
X781250Y758000D02*
D03*
X798750D02*
D03*
X781250Y737000D02*
D03*
X798750D02*
D03*
X866750Y612500D02*
D03*
X849250D02*
D03*
X598500Y236000D02*
D03*
X581000D02*
D03*
X1067750Y635000D02*
D03*
X1050250D02*
D03*
X1050500Y614000D02*
D03*
X1068000D02*
D03*
D63*
X1273900Y624000D02*
D03*
Y639000D02*
D03*
X1098900Y699000D02*
D03*
Y684000D02*
D03*
Y669000D02*
D03*
Y654000D02*
D03*
Y639000D02*
D03*
Y624000D02*
D03*
Y609000D02*
D03*
Y594000D02*
D03*
Y579000D02*
D03*
X1273900D02*
D03*
Y594000D02*
D03*
Y609000D02*
D03*
Y654000D02*
D03*
Y669000D02*
D03*
Y684000D02*
D03*
Y699000D02*
D03*
D64*
X760250Y316050D02*
D03*
X765250D02*
D03*
X770250D02*
D03*
X775250D02*
D03*
X780250D02*
D03*
X785250D02*
D03*
X790250D02*
D03*
X795250D02*
D03*
X800250D02*
D03*
X805250D02*
D03*
X810250D02*
D03*
X815250D02*
D03*
D65*
X787750Y270250D02*
D03*
Y239250D02*
D03*
D66*
X733000Y462250D02*
D03*
Y483250D02*
D03*
X699250Y462000D02*
D03*
Y483000D02*
D03*
X619750Y354500D02*
D03*
Y333500D02*
D03*
X651750Y334500D02*
D03*
Y355500D02*
D03*
X682750Y354500D02*
D03*
Y333500D02*
D03*
X539500Y402500D02*
D03*
Y423500D02*
D03*
D67*
X818700Y406250D02*
D03*
X848800D02*
D03*
D68*
X655850Y232150D02*
D03*
Y237150D02*
D03*
Y242150D02*
D03*
Y247150D02*
D03*
Y252150D02*
D03*
X617150D02*
D03*
Y247150D02*
D03*
Y242150D02*
D03*
Y237150D02*
D03*
Y232150D02*
D03*
D69*
X646500Y261500D02*
D03*
X641500D02*
D03*
X636500D02*
D03*
X631500D02*
D03*
X626500D02*
D03*
Y222800D02*
D03*
X631500D02*
D03*
X636500D02*
D03*
X641500D02*
D03*
X646500D02*
D03*
D70*
X636500Y242150D02*
D03*
D71*
X981000Y491350D02*
D03*
X1029000Y613000D02*
D03*
X1271000Y508000D02*
D03*
X1170000Y537000D02*
D03*
X1109000Y533000D02*
D03*
D72*
X759250Y751700D02*
D03*
X752750D02*
D03*
X746250D02*
D03*
X765750D02*
D03*
X759250Y732300D02*
D03*
X752750D02*
D03*
X746250D02*
D03*
X765750D02*
D03*
D73*
X770000Y438000D02*
D03*
X795000D02*
D03*
Y413000D02*
D03*
X770000D02*
D03*
D74*
X767000Y418000D02*
D03*
Y423000D02*
D03*
Y428000D02*
D03*
Y433000D02*
D03*
X798000D02*
D03*
Y428000D02*
D03*
Y423000D02*
D03*
Y418000D02*
D03*
D75*
X775000Y441000D02*
D03*
X780000D02*
D03*
X785000D02*
D03*
X790000D02*
D03*
Y410000D02*
D03*
X785000D02*
D03*
X780000D02*
D03*
X775000D02*
D03*
D76*
X782500Y425500D02*
D03*
D77*
X797500Y358450D02*
D03*
X788000D02*
D03*
X778500D02*
D03*
Y383550D02*
D03*
X788000D02*
D03*
X797500D02*
D03*
D78*
X564000Y261250D02*
D03*
X496000D02*
D03*
D79*
X540000Y238750D02*
D03*
X520000D02*
D03*
D80*
X716400Y346250D02*
D03*
X746100D02*
D03*
D81*
X618000Y424750D02*
D03*
X641000D02*
D03*
X664000D02*
D03*
D82*
X641000Y482750D02*
D03*
D83*
X593000Y467750D02*
D03*
Y438250D02*
D03*
X1048000Y686750D02*
D03*
Y657250D02*
D03*
D84*
X656750Y398000D02*
D03*
X627250D02*
D03*
X1178750Y487000D02*
D03*
X1149250D02*
D03*
D85*
X940200Y636500D02*
D03*
Y625500D02*
D03*
D86*
X975300Y631000D02*
D03*
D87*
X1196000Y637000D02*
D03*
X1207000D02*
D03*
X1185000D02*
D03*
Y648000D02*
D03*
X1196000D02*
D03*
X1207000D02*
D03*
Y626000D02*
D03*
X1196000D02*
D03*
X1185000D02*
D03*
D88*
X1023500Y446500D02*
D03*
X1274500D02*
D03*
X1023500Y231500D02*
D03*
X1296500D02*
D03*
D89*
X1253750Y464500D02*
D03*
X1228750D02*
D03*
X1203750D02*
D03*
X1178750D02*
D03*
X1153750D02*
D03*
X1128750D02*
D03*
X1103750D02*
D03*
X1079500D02*
D03*
X1062500D02*
D03*
D90*
X1049500D02*
D03*
X1037500D02*
D03*
D91*
X976000Y366500D02*
D03*
X815750Y681750D02*
D03*
X548590Y341948D02*
D03*
D92*
X745050Y292050D02*
D03*
X830450D02*
D03*
X745050Y244750D02*
D03*
X830450D02*
D03*
D93*
X815750Y303550D02*
D03*
X811750Y296450D02*
D03*
X803750D02*
D03*
X799750Y303550D02*
D03*
X795750Y296450D02*
D03*
X791750Y303550D02*
D03*
X783750D02*
D03*
X779750Y296450D02*
D03*
X775750Y303550D02*
D03*
X771750Y296450D02*
D03*
X763750D02*
D03*
X759750Y303550D02*
D03*
X767750D02*
D03*
X807750D02*
D03*
D94*
X472000Y411500D02*
D03*
Y436500D02*
D03*
Y461500D02*
D03*
X581300Y744000D02*
D03*
X606700D02*
D03*
X632100D02*
D03*
D95*
X472000Y386500D02*
D03*
D96*
X492000Y370500D02*
D03*
D97*
X467500Y342450D02*
D03*
Y317050D02*
D03*
Y291650D02*
D03*
Y266250D02*
D03*
D98*
Y240850D02*
D03*
D99*
X555900Y744000D02*
D03*
D100*
X484000Y739000D02*
D03*
X704000D02*
D03*
Y519000D02*
D03*
X484000D02*
D03*
D101*
X1045000Y436500D02*
D03*
D102*
X1255000D02*
D03*
D103*
X783750Y538750D02*
D03*
Y557750D02*
D03*
M02*
