G04*
G04 #@! TF.GenerationSoftware,Altium Limited,Altium Designer,25.4.2 (15)*
G04*
G04 Layer_Color=8421504*
%FSLAX44Y44*%
%MOMM*%
G71*
G04*
G04 #@! TF.SameCoordinates,5AC55BFC-FCD3-40F5-B288-2FFBB6E5E952*
G04*
G04*
G04 #@! TF.FilePolarity,Positive*
G04*
G01*
G75*
%ADD18R,0.5500X0.5700*%
%ADD19O,0.6000X1.6000*%
%ADD20R,1.3500X1.1500*%
%ADD21R,1.3000X1.4000*%
%ADD22R,0.9000X1.2000*%
%ADD23R,1.2000X0.9000*%
G04:AMPARAMS|DCode=24|XSize=1.32mm|YSize=0.6mm|CornerRadius=0.075mm|HoleSize=0mm|Usage=FLASHONLY|Rotation=90.000|XOffset=0mm|YOffset=0mm|HoleType=Round|Shape=RoundedRectangle|*
%AMROUNDEDRECTD24*
21,1,1.3200,0.4500,0,0,90.0*
21,1,1.1700,0.6000,0,0,90.0*
1,1,0.1500,0.2250,0.5850*
1,1,0.1500,0.2250,-0.5850*
1,1,0.1500,-0.2250,-0.5850*
1,1,0.1500,-0.2250,0.5850*
%
%ADD24ROUNDEDRECTD24*%
%ADD25R,1.4000X1.3000*%
%ADD26R,1.1500X1.3500*%
%ADD27R,1.5000X0.9000*%
%ADD28R,0.3000X1.2000*%
%ADD29R,0.2000X1.0000*%
%ADD30R,1.2000X1.2000*%
G04:AMPARAMS|DCode=31|XSize=1.2mm|YSize=1.82mm|CornerRadius=0.15mm|HoleSize=0mm|Usage=FLASHONLY|Rotation=0.000|XOffset=0mm|YOffset=0mm|HoleType=Round|Shape=RoundedRectangle|*
%AMROUNDEDRECTD31*
21,1,1.2000,1.5200,0,0,0.0*
21,1,0.9000,1.8200,0,0,0.0*
1,1,0.3000,0.4500,-0.7600*
1,1,0.3000,-0.4500,-0.7600*
1,1,0.3000,-0.4500,0.7600*
1,1,0.3000,0.4500,0.7600*
%
%ADD31ROUNDEDRECTD31*%
G04:AMPARAMS|DCode=32|XSize=0.84mm|YSize=0.26mm|CornerRadius=0.065mm|HoleSize=0mm|Usage=FLASHONLY|Rotation=180.000|XOffset=0mm|YOffset=0mm|HoleType=Round|Shape=RoundedRectangle|*
%AMROUNDEDRECTD32*
21,1,0.8400,0.1300,0,0,180.0*
21,1,0.7100,0.2600,0,0,180.0*
1,1,0.1300,-0.3550,0.0650*
1,1,0.1300,0.3550,0.0650*
1,1,0.1300,0.3550,-0.0650*
1,1,0.1300,-0.3550,-0.0650*
%
%ADD32ROUNDEDRECTD32*%
G04:AMPARAMS|DCode=33|XSize=0.26mm|YSize=0.84mm|CornerRadius=0.065mm|HoleSize=0mm|Usage=FLASHONLY|Rotation=180.000|XOffset=0mm|YOffset=0mm|HoleType=Round|Shape=RoundedRectangle|*
%AMROUNDEDRECTD33*
21,1,0.2600,0.7100,0,0,180.0*
21,1,0.1300,0.8400,0,0,180.0*
1,1,0.1300,-0.0650,0.3550*
1,1,0.1300,0.0650,0.3550*
1,1,0.1300,0.0650,-0.3550*
1,1,0.1300,-0.0650,-0.3550*
%
%ADD33ROUNDEDRECTD33*%
G04:AMPARAMS|DCode=34|XSize=0.49mm|YSize=0.45mm|CornerRadius=0.0563mm|HoleSize=0mm|Usage=FLASHONLY|Rotation=90.000|XOffset=0mm|YOffset=0mm|HoleType=Round|Shape=RoundedRectangle|*
%AMROUNDEDRECTD34*
21,1,0.4900,0.3375,0,0,90.0*
21,1,0.3775,0.4500,0,0,90.0*
1,1,0.1125,0.1688,0.1888*
1,1,0.1125,0.1688,-0.1888*
1,1,0.1125,-0.1688,-0.1888*
1,1,0.1125,-0.1688,0.1888*
%
%ADD34ROUNDEDRECTD34*%
%ADD35R,0.3500X0.3500*%
%ADD36R,0.9000X0.3000*%
%ADD37R,0.3000X0.9000*%
%ADD38R,1.8000X1.8000*%
G04:AMPARAMS|DCode=39|XSize=1.21mm|YSize=0.59mm|CornerRadius=0.0738mm|HoleSize=0mm|Usage=FLASHONLY|Rotation=270.000|XOffset=0mm|YOffset=0mm|HoleType=Round|Shape=RoundedRectangle|*
%AMROUNDEDRECTD39*
21,1,1.2100,0.4425,0,0,270.0*
21,1,1.0625,0.5900,0,0,270.0*
1,1,0.1475,-0.2213,-0.5313*
1,1,0.1475,-0.2213,0.5313*
1,1,0.1475,0.2213,0.5313*
1,1,0.1475,0.2213,-0.5313*
%
%ADD39ROUNDEDRECTD39*%
%ADD40R,1.6000X3.0000*%
%ADD41R,1.0000X5.5000*%
G04:AMPARAMS|DCode=42|XSize=1.18mm|YSize=2.81mm|CornerRadius=0.1475mm|HoleSize=0mm|Usage=FLASHONLY|Rotation=0.000|XOffset=0mm|YOffset=0mm|HoleType=Round|Shape=RoundedRectangle|*
%AMROUNDEDRECTD42*
21,1,1.1800,2.5150,0,0,0.0*
21,1,0.8850,2.8100,0,0,0.0*
1,1,0.2950,0.4425,-1.2575*
1,1,0.2950,-0.4425,-1.2575*
1,1,0.2950,-0.4425,1.2575*
1,1,0.2950,0.4425,1.2575*
%
%ADD42ROUNDEDRECTD42*%
%ADD43R,0.9500X2.1500*%
%ADD44R,3.2500X2.1500*%
%ADD45R,1.8200X1.1600*%
%ADD46R,1.1600X1.8200*%
%ADD47R,1.1000X0.8000*%
%ADD48R,1.1000X1.0000*%
%ADD49R,0.7000X0.7000*%
%ADD50R,1.5000X2.8000*%
%ADD51R,1.0000X1.5000*%
%ADD52R,0.7000X1.5000*%
%ADD53R,0.3048X0.8763*%
G36*
X625600Y240850D02*
X635200D01*
Y231250D01*
X625600D01*
Y240850D01*
D02*
G37*
G36*
Y253050D02*
X635200D01*
Y243450D01*
X625600D01*
Y253050D01*
D02*
G37*
G36*
X637800Y240850D02*
X647400D01*
Y231250D01*
X637800D01*
Y240850D01*
D02*
G37*
G36*
Y253050D02*
X647400D01*
Y243450D01*
X637800D01*
Y253050D01*
D02*
G37*
D18*
X909500Y223200D02*
D03*
X884000D02*
D03*
X909500Y234800D02*
D03*
X884000D02*
D03*
X968250Y223200D02*
D03*
X942750D02*
D03*
X968250Y234800D02*
D03*
X942750D02*
D03*
D19*
X980950Y586000D02*
D03*
X993650D02*
D03*
X1006350D02*
D03*
X1019050D02*
D03*
Y514000D02*
D03*
X1006350D02*
D03*
X993650D02*
D03*
X980950D02*
D03*
D20*
X1044000Y511250D02*
D03*
Y528750D02*
D03*
X722000Y251000D02*
D03*
Y268500D02*
D03*
X722000Y303750D02*
D03*
Y286250D02*
D03*
X1080000Y503750D02*
D03*
Y486250D02*
D03*
D21*
X1023000Y491000D02*
D03*
X1007000D02*
D03*
X889000Y257000D02*
D03*
X905000D02*
D03*
X835500Y383500D02*
D03*
X819500D02*
D03*
X763000Y714000D02*
D03*
X747000D02*
D03*
X850000Y329000D02*
D03*
X834000D02*
D03*
X890000Y537000D02*
D03*
X874000D02*
D03*
X650000Y375000D02*
D03*
X634000D02*
D03*
X850000Y633250D02*
D03*
X866000D02*
D03*
X1172000Y512000D02*
D03*
X1156000D02*
D03*
X896852Y613219D02*
D03*
X912852D02*
D03*
D22*
X941750Y280250D02*
D03*
X920750D02*
D03*
X921000Y300250D02*
D03*
X942000D02*
D03*
X825250Y362000D02*
D03*
X846250D02*
D03*
X702500Y255750D02*
D03*
X681500D02*
D03*
X1226500Y488000D02*
D03*
X1205500D02*
D03*
X581250Y290250D02*
D03*
X602250D02*
D03*
X788250Y467250D02*
D03*
X767250D02*
D03*
X946500Y654000D02*
D03*
X967500D02*
D03*
X892750Y558000D02*
D03*
X871750D02*
D03*
D23*
X863250Y224250D02*
D03*
Y245250D02*
D03*
X841500Y448250D02*
D03*
Y427250D02*
D03*
X733000Y418750D02*
D03*
Y439750D02*
D03*
X699000Y418750D02*
D03*
Y439750D02*
D03*
X655250Y283500D02*
D03*
Y304500D02*
D03*
X687250Y283500D02*
D03*
Y304500D02*
D03*
X623250Y282500D02*
D03*
Y303500D02*
D03*
X929000Y572250D02*
D03*
Y593250D02*
D03*
X540000Y463250D02*
D03*
Y442250D02*
D03*
X840500Y574250D02*
D03*
Y595250D02*
D03*
X860500Y595500D02*
D03*
Y574500D02*
D03*
D24*
X966750Y300250D02*
D03*
X976250Y280250D02*
D03*
X957250D02*
D03*
X895250Y300000D02*
D03*
X904750Y280000D02*
D03*
X885750D02*
D03*
D25*
X990750Y223250D02*
D03*
Y239250D02*
D03*
X819750Y428000D02*
D03*
Y444000D02*
D03*
X692250Y234500D02*
D03*
Y218500D02*
D03*
X790500Y611750D02*
D03*
Y595750D02*
D03*
X564500Y460750D02*
D03*
Y444750D02*
D03*
X1077000Y685000D02*
D03*
Y669000D02*
D03*
X908750Y590500D02*
D03*
Y574500D02*
D03*
D26*
X583250Y257000D02*
D03*
X600750D02*
D03*
X812000Y612250D02*
D03*
X829500D02*
D03*
X781250Y758000D02*
D03*
X798750D02*
D03*
X781250Y737000D02*
D03*
X798750D02*
D03*
X866750Y612500D02*
D03*
X849250D02*
D03*
X598500Y236000D02*
D03*
X581000D02*
D03*
X1067750Y635000D02*
D03*
X1050250D02*
D03*
X1050500Y614000D02*
D03*
X1068000D02*
D03*
D27*
X1273900Y624000D02*
D03*
Y639000D02*
D03*
X1098900Y699000D02*
D03*
Y684000D02*
D03*
Y669000D02*
D03*
Y654000D02*
D03*
Y639000D02*
D03*
Y624000D02*
D03*
Y609000D02*
D03*
Y594000D02*
D03*
Y579000D02*
D03*
X1273900D02*
D03*
Y594000D02*
D03*
Y609000D02*
D03*
Y654000D02*
D03*
Y669000D02*
D03*
Y684000D02*
D03*
Y699000D02*
D03*
D28*
X760250Y316050D02*
D03*
X765250D02*
D03*
X770250D02*
D03*
X775250D02*
D03*
X780250D02*
D03*
X785250D02*
D03*
X790250D02*
D03*
X795250D02*
D03*
X800250D02*
D03*
X805250D02*
D03*
X810250D02*
D03*
X815250D02*
D03*
D29*
X787750Y270250D02*
D03*
Y239250D02*
D03*
D30*
X733000Y462250D02*
D03*
Y483250D02*
D03*
X699250Y462000D02*
D03*
Y483000D02*
D03*
X619750Y354500D02*
D03*
Y333500D02*
D03*
X651750Y334500D02*
D03*
Y355500D02*
D03*
X682750Y354500D02*
D03*
Y333500D02*
D03*
X539500Y402500D02*
D03*
Y423500D02*
D03*
D31*
X818700Y406250D02*
D03*
X848800D02*
D03*
D32*
X655850Y232150D02*
D03*
Y237150D02*
D03*
Y242150D02*
D03*
Y247150D02*
D03*
Y252150D02*
D03*
X617150D02*
D03*
Y247150D02*
D03*
Y242150D02*
D03*
Y237150D02*
D03*
Y232150D02*
D03*
D33*
X646500Y261500D02*
D03*
X641500D02*
D03*
X636500D02*
D03*
X631500D02*
D03*
X626500D02*
D03*
Y222800D02*
D03*
X631500D02*
D03*
X636500D02*
D03*
X641500D02*
D03*
X646500D02*
D03*
D34*
X759250Y751700D02*
D03*
X752750D02*
D03*
X746250D02*
D03*
X765750D02*
D03*
X759250Y732300D02*
D03*
X752750D02*
D03*
X746250D02*
D03*
X765750D02*
D03*
D35*
X770000Y438000D02*
D03*
X795000D02*
D03*
Y413000D02*
D03*
X770000D02*
D03*
D36*
X767000Y418000D02*
D03*
Y423000D02*
D03*
Y428000D02*
D03*
Y433000D02*
D03*
X798000D02*
D03*
Y428000D02*
D03*
Y423000D02*
D03*
Y418000D02*
D03*
D37*
X775000Y441000D02*
D03*
X780000D02*
D03*
X785000D02*
D03*
X790000D02*
D03*
Y410000D02*
D03*
X785000D02*
D03*
X780000D02*
D03*
X775000D02*
D03*
D38*
X782500Y425500D02*
D03*
D39*
X797500Y358450D02*
D03*
X788000D02*
D03*
X778500D02*
D03*
Y383550D02*
D03*
X788000D02*
D03*
X797500D02*
D03*
D40*
X564000Y261250D02*
D03*
X496000D02*
D03*
D41*
X540000Y238750D02*
D03*
X520000D02*
D03*
D42*
X716400Y346250D02*
D03*
X746100D02*
D03*
D43*
X618000Y424750D02*
D03*
X641000D02*
D03*
X664000D02*
D03*
D44*
X641000Y482750D02*
D03*
D45*
X593000Y467750D02*
D03*
Y438250D02*
D03*
X1048000Y686750D02*
D03*
Y657250D02*
D03*
D46*
X656750Y398000D02*
D03*
X627250D02*
D03*
X1178750Y487000D02*
D03*
X1149250D02*
D03*
D47*
X940200Y636500D02*
D03*
Y625500D02*
D03*
D48*
X975300Y631000D02*
D03*
D49*
X1196000Y637000D02*
D03*
X1207000D02*
D03*
X1185000D02*
D03*
Y648000D02*
D03*
X1196000D02*
D03*
X1207000D02*
D03*
Y626000D02*
D03*
X1196000D02*
D03*
X1185000D02*
D03*
D50*
X1023500Y446500D02*
D03*
X1274500D02*
D03*
X1023500Y231500D02*
D03*
X1296500D02*
D03*
D51*
X1253750Y464500D02*
D03*
X1228750D02*
D03*
X1203750D02*
D03*
X1178750D02*
D03*
X1153750D02*
D03*
X1128750D02*
D03*
X1103750D02*
D03*
X1079500D02*
D03*
X1062500D02*
D03*
D52*
X1049500D02*
D03*
X1037500D02*
D03*
D53*
X879352Y595444D02*
D03*
X892352D02*
D03*
Y573219D02*
D03*
X885852D02*
D03*
X879352D02*
D03*
M02*
