G04*
G04 #@! TF.GenerationSoftware,Altium Limited,Altium Designer,25.4.2 (15)*
G04*
G04 Layer_Color=16711935*
%FSLAX44Y44*%
%MOMM*%
G71*
G04*
G04 #@! TF.SameCoordinates,5AC55BFC-FCD3-40F5-B288-2FFBB6E5E952*
G04*
G04*
G04 #@! TF.FilePolarity,Negative*
G04*
G01*
G75*
%ADD91C,3.3016*%
%ADD92O,1.1516X2.2016*%
%ADD93C,0.7516*%
%ADD94C,1.6096*%
%ADD95R,1.6096X1.6096*%
%ADD96C,1.4016*%
%ADD97C,1.1628*%
%ADD98R,1.1628X1.1628*%
%ADD99R,1.6096X1.6096*%
%ADD100C,3.1016*%
%ADD101C,1.2516*%
%ADD102C,1.7516*%
%ADD103C,1.3096*%
D91*
X976000Y366500D02*
D03*
X815750Y681750D02*
D03*
X548590Y341948D02*
D03*
D92*
X745050Y292050D02*
D03*
X830450D02*
D03*
X745050Y244750D02*
D03*
X830450D02*
D03*
D93*
X815750Y303550D02*
D03*
X811750Y296450D02*
D03*
X803750D02*
D03*
X799750Y303550D02*
D03*
X795750Y296450D02*
D03*
X791750Y303550D02*
D03*
X783750D02*
D03*
X779750Y296450D02*
D03*
X775750Y303550D02*
D03*
X771750Y296450D02*
D03*
X763750D02*
D03*
X759750Y303550D02*
D03*
X767750D02*
D03*
X807750D02*
D03*
D94*
X472000Y411500D02*
D03*
Y436500D02*
D03*
Y461500D02*
D03*
X581300Y744000D02*
D03*
X606700D02*
D03*
X632100D02*
D03*
D95*
X472000Y386500D02*
D03*
D96*
X492000Y370500D02*
D03*
D97*
X467500Y342450D02*
D03*
Y317050D02*
D03*
Y291650D02*
D03*
Y266250D02*
D03*
D98*
Y240850D02*
D03*
D99*
X555900Y744000D02*
D03*
D100*
X484000Y739000D02*
D03*
X704000D02*
D03*
Y519000D02*
D03*
X484000D02*
D03*
D101*
X1045000Y436500D02*
D03*
D102*
X1255000D02*
D03*
D103*
X783750Y538750D02*
D03*
Y557750D02*
D03*
M02*
