G04*
G04 #@! TF.GenerationSoftware,Altium Limited,Altium Designer,25.4.2 (15)*
G04*
G04 Layer_Physical_Order=4*
G04 Layer_Color=16711680*
%FSLAX44Y44*%
%MOMM*%
G71*
G04*
G04 #@! TF.SameCoordinates,5AC55BFC-FCD3-40F5-B288-2FFBB6E5E952*
G04*
G04*
G04 #@! TF.FilePolarity,Positive*
G04*
G01*
G75*
%ADD104C,0.3000*%
%ADD107C,0.3810*%
%ADD109C,0.2540*%
%ADD110C,1.0000*%
%ADD112C,3.2000*%
%ADD113O,1.0500X2.1000*%
%ADD114C,0.6500*%
%ADD115C,1.5080*%
%ADD116R,1.5080X1.5080*%
%ADD117C,1.3000*%
%ADD118C,1.1628*%
%ADD119R,1.1628X1.1628*%
%ADD120R,1.5080X1.5080*%
%ADD121C,3.0000*%
%ADD122C,0.4000*%
%ADD123C,1.1500*%
%ADD124C,1.6500*%
%ADD125C,1.2080*%
%ADD126C,0.6096*%
%ADD127C,0.6000*%
%ADD128C,0.8000*%
D104*
X927000Y322250D02*
Y347500D01*
X819592Y412158D02*
X862342D01*
X927000Y347500D01*
X1108500Y556500D02*
X1108625Y556375D01*
X1144375D01*
X1144500Y556250D01*
X1137183Y563698D02*
X1138021D01*
X1136131Y564750D02*
X1137183Y563698D01*
X1120750Y564750D02*
X1136131D01*
X1066500Y561500D02*
X1075010D01*
X1095034Y581524D01*
X1114558Y601250D02*
X1142071D01*
X1095034Y581524D02*
Y581726D01*
X1114558Y601250D01*
X1060592Y580658D02*
X1061100D01*
Y589392D01*
X1059243Y591250D02*
X1061100Y589392D01*
X1050750Y591250D02*
X1059243D01*
X740743Y503243D02*
X962743D01*
X1050750Y591250D01*
X960250Y509243D02*
X1040500Y589493D01*
Y589493D02*
X1047666Y596659D01*
X1040500Y589493D02*
Y589493D01*
X1047666Y596659D02*
X1064341D01*
X1068750Y583000D02*
Y592250D01*
X1064341Y596659D02*
X1068750Y592250D01*
X739672Y509243D02*
X960250D01*
X743743Y496000D02*
X965000D01*
X1046750Y577750D01*
X595750Y365321D02*
X739672Y509243D01*
X595750Y317000D02*
Y365321D01*
X538850Y317000D02*
X595750D01*
X519500Y297650D02*
X538850Y317000D01*
X486900Y297650D02*
X519500D01*
X467500Y317050D02*
X486900Y297650D01*
X601750Y364250D02*
X740743Y503243D01*
X601750Y314515D02*
Y364250D01*
X598235Y311000D02*
X601750Y314515D01*
X541335Y311000D02*
X598235D01*
X521985Y291650D02*
X541335Y311000D01*
X467500Y291650D02*
X521985D01*
X1026702Y463192D02*
Y531712D01*
X1006750Y443240D02*
X1026702Y463192D01*
Y531712D02*
X1101240Y606250D01*
X1122743D01*
X1124500Y608007D01*
Y672750D01*
X607750Y360007D02*
X743743Y496000D01*
X600720Y305000D02*
X607750Y312029D01*
Y360007D01*
X524470Y285650D02*
X543821Y305000D01*
X600720D01*
X486900Y285650D02*
X524470D01*
X467500Y266250D02*
X486900Y285650D01*
X1112000Y548500D02*
X1123500Y537000D01*
X1135500D01*
X1142071Y601250D02*
X1189000Y554321D01*
Y535750D02*
Y554321D01*
X1084250Y536500D02*
X1113500Y507250D01*
Y480750D02*
Y507250D01*
X1062428Y519572D02*
Y523822D01*
X1062250Y524000D02*
X1062428Y523822D01*
Y519572D02*
X1075750Y506250D01*
X1103250D01*
X1074500Y536500D02*
X1084250D01*
X763750Y446250D02*
X768500D01*
X754000Y424087D02*
Y436500D01*
X763750Y446250D01*
X754000Y424087D02*
X873500Y304587D01*
X779500Y452250D02*
X819592Y412158D01*
X873500Y268750D02*
Y304587D01*
X1113000Y684250D02*
X1124500Y672750D01*
X1006750Y410750D02*
Y443240D01*
X1065250Y409250D02*
X1122750Y466750D01*
Y486750D01*
X1153339Y517339D02*
Y582911D01*
X1122750Y486750D02*
X1153339Y517339D01*
X1035750Y409250D02*
X1065250D01*
X1141500Y594750D02*
X1153339Y582911D01*
X1117250Y594750D02*
X1141500D01*
X988500Y656500D02*
X1016548Y684548D01*
X1058962D01*
X1066760Y676750D01*
X1110000D01*
X1118000Y668750D01*
X1061452Y654000D02*
X1062702Y655250D01*
X1051401Y654000D02*
X1061452D01*
X1027401Y678000D02*
X1051401Y654000D01*
X1062702Y655250D02*
X1070500D01*
X748358Y316500D02*
X762712Y330854D01*
X736000Y316500D02*
X748358D01*
X762712Y330854D02*
X779408D01*
X738097Y260750D02*
X752564D01*
X788000Y296187D01*
X795487D01*
X795750Y296450D01*
X1302500Y550500D02*
X1303000Y550000D01*
X1281000Y551000D02*
X1281500Y550500D01*
X1302500D01*
X1238336Y667664D02*
X1252000Y654000D01*
X1140336Y667664D02*
X1238336D01*
X1106282Y701718D02*
X1140336Y667664D01*
X1077718Y701718D02*
X1106282D01*
D107*
X756250Y352500D02*
X765250Y343500D01*
X756250Y352500D02*
Y357500D01*
X765250Y343500D02*
X788000D01*
D109*
X809500Y334000D02*
Y360000D01*
X783852Y308352D02*
X809500Y334000D01*
X783750Y303550D02*
X783852Y303652D01*
Y308352D01*
D110*
X670500Y368000D02*
X674750Y363750D01*
Y222750D02*
Y363750D01*
D112*
X976000Y366500D02*
D03*
X815750Y681750D02*
D03*
X548590Y341948D02*
D03*
D113*
X745050Y292050D02*
D03*
X830450D02*
D03*
X745050Y244750D02*
D03*
X830450D02*
D03*
D114*
X815750Y303550D02*
D03*
X811750Y296450D02*
D03*
X803750D02*
D03*
X799750Y303550D02*
D03*
X795750Y296450D02*
D03*
X791750Y303550D02*
D03*
X783750D02*
D03*
X779750Y296450D02*
D03*
X775750Y303550D02*
D03*
X771750Y296450D02*
D03*
X763750D02*
D03*
X759750Y303550D02*
D03*
X767750D02*
D03*
X807750D02*
D03*
D115*
X472000Y411500D02*
D03*
Y436500D02*
D03*
Y461500D02*
D03*
X581300Y744000D02*
D03*
X606700D02*
D03*
X632100D02*
D03*
D116*
X472000Y386500D02*
D03*
D117*
X492000Y370500D02*
D03*
D118*
X467500Y342450D02*
D03*
Y317050D02*
D03*
Y291650D02*
D03*
Y266250D02*
D03*
D119*
Y240850D02*
D03*
D120*
X555900Y744000D02*
D03*
D121*
X484000Y739000D02*
D03*
X704000D02*
D03*
Y519000D02*
D03*
X484000D02*
D03*
D122*
X1201500Y648000D02*
D03*
X1207000Y642500D02*
D03*
Y631500D02*
D03*
X1190500Y648000D02*
D03*
X1201500Y637000D02*
D03*
X1196000Y642500D02*
D03*
X1185000D02*
D03*
X1190500Y637000D02*
D03*
X1201500Y626000D02*
D03*
X1190500D02*
D03*
X1196000Y631500D02*
D03*
X1185000D02*
D03*
D123*
X1045000Y436500D02*
D03*
D124*
X1255000D02*
D03*
D125*
X783750Y538750D02*
D03*
Y557750D02*
D03*
D126*
X988750Y599250D02*
D03*
X809250Y412000D02*
D03*
X1144500Y556250D02*
D03*
X1108500Y556500D02*
D03*
X1120750Y564750D02*
D03*
X1138021Y563698D02*
D03*
X1066500Y561500D02*
D03*
X1084750Y580500D02*
D03*
X1046750Y577750D02*
D03*
X1135500Y537000D02*
D03*
X1189000Y535750D02*
D03*
X1113500Y480750D02*
D03*
X1074500Y536500D02*
D03*
X820000Y455500D02*
D03*
X1027401Y678000D02*
D03*
X1030750Y657500D02*
D03*
X736000Y316500D02*
D03*
X779408Y330854D02*
D03*
X768250Y359250D02*
D03*
X738097Y260750D02*
D03*
X809500Y360000D02*
D03*
X788000Y343500D02*
D03*
X822250Y747500D02*
D03*
X810750Y725000D02*
D03*
X933750Y654000D02*
D03*
X635750Y355000D02*
D03*
X664250Y354500D02*
D03*
X1007000Y470750D02*
D03*
X1187000Y509500D02*
D03*
X1211500Y504500D02*
D03*
X732750Y714000D02*
D03*
X885500Y612250D02*
D03*
X878250D02*
D03*
X848000Y224250D02*
D03*
X855500Y427250D02*
D03*
X802250Y407500D02*
D03*
X637750Y213250D02*
D03*
X674750Y222750D02*
D03*
X974500Y216950D02*
D03*
X930750Y217500D02*
D03*
X916950Y215750D02*
D03*
X876500Y215700D02*
D03*
X765250Y725000D02*
D03*
X794500Y451500D02*
D03*
X1070500Y655250D02*
D03*
X491750Y477750D02*
D03*
X670500Y368000D02*
D03*
X565750Y230750D02*
D03*
X618000Y260000D02*
D03*
X707500Y231250D02*
D03*
X1135250Y485500D02*
D03*
X1139250Y513000D02*
D03*
X787750Y372500D02*
D03*
X769500Y398500D02*
D03*
X860750Y397500D02*
D03*
X851000Y383250D02*
D03*
X756500Y467000D02*
D03*
X525750Y401250D02*
D03*
X707500Y284250D02*
D03*
X706500Y270000D02*
D03*
X707000Y218500D02*
D03*
X598000Y272750D02*
D03*
X564000Y296500D02*
D03*
X885750Y584500D02*
D03*
X908750Y537500D02*
D03*
X817250Y595000D02*
D03*
X778000Y715000D02*
D03*
X734000Y750000D02*
D03*
X883250Y635500D02*
D03*
X911250Y629500D02*
D03*
X923500Y642000D02*
D03*
X1064000Y670250D02*
D03*
X1033250Y501750D02*
D03*
X1040000Y485750D02*
D03*
X1006750Y454750D02*
D03*
X1113250Y446000D02*
D03*
X1180500Y445500D02*
D03*
X1277500Y474500D02*
D03*
X1271250Y240750D02*
D03*
X1009750Y237500D02*
D03*
X1006750Y215500D02*
D03*
X871000Y261000D02*
D03*
X868000Y329000D02*
D03*
X1281000Y551000D02*
D03*
X1303000Y550000D02*
D03*
X1077718Y701718D02*
D03*
X1252000Y654000D02*
D03*
X620000Y500000D02*
D03*
X630000D02*
D03*
X640000D02*
D03*
X650000D02*
D03*
X660000D02*
D03*
X670000D02*
D03*
X610000D02*
D03*
X605250Y392000D02*
D03*
X593000Y391750D02*
D03*
X578500Y391500D02*
D03*
X578250Y405250D02*
D03*
Y418750D02*
D03*
X564000D02*
D03*
X504750Y217000D02*
D03*
X505000Y228000D02*
D03*
X504750Y236750D02*
D03*
X756250Y357500D02*
D03*
Y346250D02*
D03*
Y336250D02*
D03*
X699750Y331750D02*
D03*
Y347750D02*
D03*
X699250Y362500D02*
D03*
D127*
X1061100Y580658D02*
D03*
X1068750Y583000D02*
D03*
X1112000Y548500D02*
D03*
X1062250Y524000D02*
D03*
X1103250Y506250D02*
D03*
X768500Y446250D02*
D03*
X779500Y452250D02*
D03*
X927000Y322250D02*
D03*
X1113000Y684250D02*
D03*
X1006750Y410750D02*
D03*
X1117250Y594750D02*
D03*
X1035750Y409250D02*
D03*
X1118000Y668750D02*
D03*
X988500Y656500D02*
D03*
X1254900Y675500D02*
D03*
X873500Y268750D02*
D03*
D128*
X1022000Y693750D02*
D03*
M02*
