M48
;Layer_Color=9474304
;FILE_FORMAT=4:4
METRIC,LZ
;TYPE=PLATED
T01F00S00C0.3000
T02F00S00C0.3048
T03F00S00C0.4000
T04F00S00C0.4500
T06F00S00C0.7000
T07F00S00C0.8128
T08F00S00C1.0000
T09F00S00C2.0000
;TYPE=NON_PLATED
T10F00S00C1.1500
T11F00S00C1.3000
T12F00S00C1.6500
T13F00S00C3.2000
%
T01
X008735Y0026875
X00927Y0032225
X012015Y00626
Y00637
X01196Y006315
X01207
Y006425
X012015Y00648
X01196Y006425
X012549Y006755
X011905Y00648
X01185Y006425
X011905Y00637
Y00626
X01185Y006315
X01118Y0066875
X01113Y0068425
X0111725Y0059475
X01112Y005485
X0110325Y0050625
X0106225Y00524
X010611Y00580658
X0106875Y00583
X009885Y006565
X0100675Y0041075
X0103575Y0040925
X007795Y0045225
X007685Y0044625
T02
X0050475Y00217
X00505Y00228
X0050475Y0023675
X0056575Y0023075
X00564Y002965
X00598Y0027275
X00618Y0026
X0063775Y0021325
X0067475Y0022275
X00707Y002185
X007075Y0023125
X007065Y0027
X007075Y0028425
X00738097Y0026075
X00736Y003165
X0075625Y0033625
Y0034625
Y003575
X0076825Y0035925
X0078775Y003725
X00788Y003435
X00779408Y00330854
X0069975Y0033175
Y0034775
X0069925Y003625
X006705Y00368
X0066425Y003545
X0063575Y00355
X0060525Y00392
X00593Y0039175
X005785Y003915
X008095Y0036
X00851Y0038325
X00868Y00329
X00871Y00261
X008765Y002157
X00848Y0022425
X0091695Y0021575
X0093075Y002175
X009745Y0021695
X0100675Y002155
X0100975Y002375
X0127125Y0024075
X012775Y004745
X01281Y00551
X01303Y0055
X012115Y005045
X01252Y00654
X01189Y0053575
X01187Y005095
X0113925Y00513
X011355Y00537
X011445Y0055625
X01138021Y00563698
X0112075Y0056475
X011085Y005565
X010665Y005615
X010745Y005365
X0108475Y005805
X0104675Y0057775
X0098875Y0059925
X0103075Y006575
X01027401Y00678
X01064Y0067025
X010705Y0065525
X01077718Y00701718
X0093375Y00654
X009235Y00642
X0091125Y006295
X0088325Y006355
X008855Y0061225
X0087825
X0088575Y005845
X0090875Y005375
X0081725Y00595
X0081075Y00725
X0082225Y007475
X0082Y004555
X007945Y004515
X0080225Y004075
X0080925Y00412
X008555Y0042725
X0086075Y003975
X0100675Y0045475
X01007Y0047075
X0104Y0048575
X0103325Y0050175
X011135Y0048075
X0113525Y004855
X0111325Y00446
X011805Y004455
X007565Y00467
X007695Y003985
X0057825Y0040525
Y0041875
X00564
X0052575Y0040125
X0049175Y0047775
X0061Y005
X0062
X0063
X0064
X0065
X0066
X0067
X0073275Y00714
X00734Y0075
X0076525Y00725
X00778Y00715
T03
X01022Y0069375
T04
X0076375Y0029645
X0077175
X0077975
X0077575Y0030355
X0078375
X0079175
X0076775
X0075975
X0079975
X0080775
X0081575
X0081175Y0029645
X0080375
X0079575
T06
X0078375Y0053875
Y0055775
T07
X004675Y0024085
Y0026625
Y0029165
Y0031705
Y0034245
T08
X00472Y003865
Y004115
Y004365
Y004615
X005559Y00744
X005813
X006067
X006321
T09
X00484Y00519
Y00739
X00704
Y00519
T10
X01045Y004365
T11
X00492Y003705
T12
X01255Y004365
T13
X0054859Y00341948
X00976Y003665
X0081575Y0068175
M30
